<svg width="320" height="670" viewBox="0 0 320 670" fill="none" xmlns="http://www.w3.org/2000/svg">
<g clip-path="url(#clip0)">
<g clip-path="url(#clip1)">
<rect x="-615" y="-19" width="1366" height="700" fill="#C7DEEF"/>
<path d="M-368.314 232.901L-370.621 252.193L-380.511 277.914L-372.929 308.252L-332.052 324.081L-323.811 294.897C-323.811 294.897 -292.329 296.71 -286.395 300.173C-280.626 303.635 -277.659 330.016 -277.659 330.016L-266.616 342.218L-297.603 375.524L-259.693 403.059L-278.319 468.352L-291.175 518.64L-258.539 548.484L-238.76 561.839L-224.75 532.655L-216.509 494.732L-179.093 473.628L-139.37 493.413L-108.383 485.169L-34.2108 478.739L-48.2211 450.05L-34.2108 434.881H-13.1131L5.51224 382.943L38.1479 403.388L60.8939 383.603L67.3221 369.588L56.7732 338.59L108.199 333.314L116.44 293.578C116.44 293.578 211.051 260.931 208.743 262.085C206.435 263.24 190.118 224.657 190.118 224.657L170.339 167.444L185.008 144.031L167.536 121.772L155.339 108.911L160.614 74.4508L137.208 79.727L116.111 75.1103L116.77 55.8193L102.1 38.8365L80.5082 52.8514L68.3111 35.8687L73.5855 20.6996L56.938 -4.85693L26.61 -0.734909L-101.954 34.3847L-321.503 119.628L-387.434 190.362L-368.314 232.901Z" fill="#ADCFE7"/>
<path d="M-620.662 132.818L-552.918 133.808L-496.877 145.02L-461.44 183.767L-448.418 209.488L-397.981 222.514L-377.378 236.529L-335.347 214.105L-326.447 191.681L-338.15 169.752L-331.556 166.454L-311.942 172.06L-307.657 185.086C-307.657 185.086 -270.736 208.499 -267.934 209.323C-265.131 210.313 -224.914 239.661 -224.914 239.661L-210.904 255.16L-198.706 256.149L-176.29 245.927L-162.774 197.782H-179.092L-194.091 177.666L-218.815 160.354L-223.925 141.227L-221.123 138.424L-179.092 159.035L-154.863 151.615L-150.248 141.722L-144.643 137.435L-144.149 125.234L-154.368 119.133L-160.961 111.714C-160.961 111.714 -162.774 105.118 -162.774 104.294C-162.774 103.305 -157.665 93.0822 -157.665 93.0822L-151.566 97.3691L-150.083 104.789L-137.391 104.294L-135.908 109.405L-128.49 104.789L-127.502 91.2685L-118.106 111.384L-120.414 118.474L-106.404 121.771L-99.3162 127.872L-105.909 130.675L-112.008 145.185V154.088L-127.007 169.917L-137.226 178.82L-129.315 179.315L-124.205 174.204L-114.81 172.39L-110.524 175.193L-108.711 184.096L-99.8107 189.702L-86.2949 185.91L-80.1964 187.394C-80.1964 187.394 -63.8786 205.696 -61.9007 205.696C-60.0876 205.696 -38.4953 201.904 -38.4953 201.904L-36.1877 205.696L-25.4741 206.685L-11.4638 214.599L-0.255676 212.291L21.6663 187.064L27.2703 170.741L48.6978 142.217L64.1914 111.879L67.9825 87.1465L52.9833 73.6262L40.4565 51.0375C40.4565 51.0375 36.6655 56.1488 36.171 55.3244C35.6765 54.3351 29.5779 47.4101 29.5779 47.4101L21.1718 31.9113L30.0724 23.5024L29.5779 4.87084L16.8863 -9.63869L12.2712 -9.14404L11.2822 -4.85713L7.49121 -12.2768L0.898132 -35.6899L172.317 -59.103L179.405 -12.4417V-2.5488L176.603 19.875L178.086 33.8899L185.998 50.2131L201.821 60.4357C201.821 60.4357 210.228 63.2387 210.228 62.2494C210.228 61.2601 210.228 50.0482 211.711 50.0482C213.194 50.0482 221.106 37.3524 221.106 37.3524L231.82 45.2667L224.403 42.9583L218.799 50.378L225.062 59.4464L235.776 52.3566L259.675 75.4399L265.774 74.4506L258.357 64.228H292.97L314.068 42.7935C314.068 42.7935 301.871 26.4702 302.86 26.4702C303.849 26.4702 308.464 23.1726 308.464 23.1726L306.651 18.8857L318.354 22.678L322.639 27.2947L335.331 23.5024L344.726 26.3054L354.615 29.603L370.933 26.3054L373.735 32.9006L378.845 34.3845L384.449 45.5964L391.536 45.1018L401.426 35.7036L412.14 33.3952L416.425 39.0012L420.216 35.2089L429.611 34.7143C429.611 34.7143 433.402 25.8107 432.413 26.3054C431.424 26.8 440.819 21.6887 440.819 21.6887L450.709 25.9756L445.105 41.8042L451.203 49.2238L454.006 59.9411L462.412 63.2387C462.412 63.2387 475.433 73.1316 476.916 73.1316C478.4 73.1316 490.927 67.031 490.927 67.031L492.41 78.2429L497.52 81.5405C497.52 81.5405 500.816 88.9601 501.311 89.9494C501.805 90.9387 510.211 94.2363 510.211 94.2363L512.024 98.0286L526.529 104.129L529.331 102.645L536.419 105.448L540.704 113.363L542.023 127.872L547.132 133.478C547.132 133.478 547.627 139.084 548.946 140.073C550.264 141.063 553.231 147.163 554.55 147.163C556.033 147.163 559.659 145.349 559.659 145.349L560.978 149.636L567.571 151.45C567.571 151.45 558.67 158.045 560.154 159.859C561.637 161.673 571.856 171.566 571.856 171.566L569.549 163.651L573.34 151.945L569.549 145.349L564.934 143.536L561.143 135.127L556.033 140.238L552.736 137.435L546.473 118.804L541.858 108.911L540.375 99.5125L537.573 90.6089L554.385 74.7804C554.385 74.7804 564.604 71.4827 563.78 71.9774C562.791 72.472 574.988 55.1595 574.988 55.1595L577.296 35.5387L578.779 20.5345L568.56 13.4446L559.165 8.33334L551.748 13.4446L545.155 -1.06487L546.143 -5.35178L539.55 -7.16547L522.244 -34.2059V-38.8226C522.244 -38.8226 591.8 -45.9125 594.273 -45.9125C596.745 -45.9125 605.481 -18.872 605.481 -18.872L606.47 -10.9577L608.283 -2.05416L612.074 1.73811L608.283 7.8387L606.47 17.2369L623.282 27.4595L647.512 27.9542L677.016 10.147L706.355 -14.75L716.574 -38.6577V-84H-665V129.191L-620.662 132.818Z" fill="#F4F4F4"/>
<path d="M-86.1289 352.605L-81.0193 369.753L-79.0414 380.635L-67.0091 386.241L-51.5154 399.266L-35.6921 399.761L-22.1763 398.772L-16.5722 401.08L-16.9018 391.847H-12.2867L-0.58403 375.358L0.404938 369.753L-2.89159 365.631L1.22907 360.025L-2.89159 341.393L-7.67159 337.106L-1.573 321.607L4.5256 319.299L10.6241 309.076L-9.48464 279.233L-15.5832 277.254L-17.8908 286.653L-28.1101 293.248V304.789L-44.0982 315.672L-59.4271 324.41L-71.1297 335.292L-86.1289 352.605Z" fill="#F4F4F4"/>
<path d="M286.172 635.702L267 612" stroke="#0C0C0C" stroke-width="3"/>
<path d="M270.168 634.343L286.32 636.306L288.283 620.152" stroke="#0C0C0C" stroke-width="3"/>
<path d="M63.6268 308.379C63.4337 307.608 63.0475 306.258 63.0475 306.258L69.4206 300.279C70.1931 299.507 70.1931 298.35 69.4206 297.579C68.6481 296.807 67.4894 296.807 66.7169 297.579L60.3437 303.558C60.3437 303.558 58.7987 302.979 58.0262 302.786L47.2111 298.543L46.4386 300.279C46.0523 301.243 47.2111 302.786 49.1424 303.751L55.9018 307.801L49.5286 313.78L44.7005 313.394C44.7005 313.394 43.3486 313.394 43.1555 313.973C42.7692 314.551 43.1555 315.323 43.7348 315.516L47.5974 317.059C47.7905 317.251 48.3699 317.251 48.563 317.444C48.563 317.444 48.7561 318.216 48.7561 318.409L49.9149 322.266C50.108 322.845 50.8805 323.23 51.4599 322.845C52.0393 322.652 52.0392 321.302 52.0392 321.302V316.48L58.2193 310.694L61.6956 317.444C62.6612 319.566 64.0131 320.916 64.9787 320.53L66.7169 319.759L63.6268 308.379Z" stroke="#0C0C0C" stroke-width="2"/>
<path d="M175.943 214.27L194.733 273.132L187.646 330.016L192.426 384.756L178.415 424.493L137.703 481.542" stroke="#90B5CF" stroke-width="8"/>
<path d="M285.879 190.857L282.582 101.986L282.912 74.9453" stroke="#90B5CF" stroke-width="5"/>
<path d="M-414.633 744.692L-263.157 516.167L-244.532 488.137L-242.224 461.097C-242.224 461.097 -131.461 391.847 -127.835 391.022C-124.044 390.033 -113.825 382.613 -113.825 382.613L-102.122 364.806L-71.2996 250.379L-64.2121 242.465C-64.2121 242.465 -60.9156 234.056 -59.597 234.056C-58.1135 234.056 -40.4771 234.55 -40.4771 234.55L-40.9715 242.959L-5.53389 276.1L323.789 744.857" stroke="#90B5CF" stroke-width="8"/>
<path d="M-9.98438 273.132L48.8586 267.856L202.147 203.882L332.525 185.25L415.268 189.867L572.182 231.912L617.509 229.109L767.007 210.477" stroke="#90B5CF" stroke-width="8"/>
<path d="M137.702 479.728L-8.4987 556.233L-36.5191 576.348L-67.012 616.085L-76.2422 656.316L-67.012 690.941L-71.6271 744.692" stroke="#90B5CF" stroke-width="8"/>
<path d="M-15.0391 518.998H-13.6787V527.843H-8.59277V529.04H-15.0391V518.998ZM-6.17969 521.718V526.579C-6.17969 526.952 -6.12044 527.258 -6.00195 527.495C-5.7832 527.932 -5.37533 528.151 -4.77832 528.151C-3.92155 528.151 -3.33822 527.768 -3.02832 527.002C-2.8597 526.592 -2.77539 526.029 -2.77539 525.314V521.718H-1.54492V529.04H-2.70703L-2.69336 527.959C-2.85286 528.237 -3.05111 528.472 -3.28809 528.664C-3.75749 529.046 -4.32715 529.238 -4.99707 529.238C-6.04069 529.238 -6.75163 528.889 -7.12988 528.192C-7.33496 527.818 -7.4375 527.319 -7.4375 526.695V521.718H-6.17969ZM0.382812 521.752H1.63379V529.04H0.382812V521.752ZM0.382812 518.998H1.63379V520.392H0.382812V518.998ZM6.08398 521.588C6.6582 521.588 7.15951 521.73 7.58789 522.012C7.82031 522.172 8.05729 522.404 8.29883 522.709V521.787H9.43359V528.445C9.43359 529.375 9.29688 530.108 9.02344 530.646C8.51302 531.639 7.54915 532.136 6.13184 532.136C5.34342 532.136 4.68034 531.958 4.14258 531.603C3.60482 531.252 3.30404 530.701 3.24023 529.949H4.49121C4.55046 530.277 4.66895 530.53 4.84668 530.708C5.12467 530.981 5.56217 531.118 6.15918 531.118C7.10254 531.118 7.72005 530.785 8.01172 530.12C8.1849 529.728 8.26465 529.028 8.25098 528.021C8.00488 528.395 7.70866 528.673 7.3623 528.855C7.01595 529.037 6.55794 529.128 5.98828 529.128C5.19531 529.128 4.50033 528.848 3.90332 528.288C3.31087 527.722 3.01465 526.791 3.01465 525.492C3.01465 524.266 3.31315 523.309 3.91016 522.621C4.51172 521.932 5.23633 521.588 6.08398 521.588ZM8.29883 525.348C8.29883 524.441 8.11198 523.769 7.73828 523.332C7.36458 522.894 6.88835 522.675 6.30957 522.675C5.44368 522.675 4.85124 523.081 4.53223 523.892C4.36361 524.325 4.2793 524.892 4.2793 525.594C4.2793 526.419 4.44564 527.048 4.77832 527.481C5.11556 527.909 5.56673 528.124 6.13184 528.124C7.01595 528.124 7.63802 527.725 7.99805 526.927C8.19857 526.476 8.29883 525.95 8.29883 525.348ZM14.3418 521.554C14.8613 521.554 15.3649 521.677 15.8525 521.923C16.3402 522.165 16.7116 522.479 16.9668 522.867C17.2129 523.236 17.377 523.667 17.459 524.159C17.5319 524.496 17.5684 525.034 17.5684 525.772H12.2021C12.2249 526.515 12.4004 527.112 12.7285 527.563C13.0566 528.01 13.5648 528.233 14.2529 528.233C14.8955 528.233 15.4082 528.021 15.791 527.597C16.0098 527.351 16.1647 527.066 16.2559 526.743H17.4658C17.4339 527.012 17.3268 527.312 17.1445 527.645C16.9668 527.973 16.7663 528.242 16.543 528.452C16.1693 528.816 15.7067 529.062 15.1553 529.19C14.859 529.263 14.5241 529.299 14.1504 529.299C13.2389 529.299 12.4665 528.969 11.833 528.308C11.1995 527.643 10.8828 526.713 10.8828 525.519C10.8828 524.343 11.2018 523.389 11.8398 522.655C12.4779 521.921 13.3118 521.554 14.3418 521.554ZM16.3037 524.794C16.2536 524.261 16.1374 523.835 15.9551 523.516C15.6178 522.924 15.055 522.627 14.2666 522.627C13.7015 522.627 13.2275 522.833 12.8447 523.243C12.4619 523.648 12.2591 524.166 12.2363 524.794H16.3037Z" fill="#0C0C0C"/>
<path d="M92.9688 603.121H94.2949V608.015L99.1895 603.121H101.069L96.8926 607.167L101.186 613.163H99.415L95.9014 608.125L94.2949 609.663V613.163H92.9688V603.121ZM102.143 605.875H103.394V613.163H102.143V605.875ZM102.143 603.121H103.394V604.515H102.143V603.121ZM105.26 605.875H106.511V613.163H105.26V605.875ZM105.26 603.121H106.511V604.515H105.26V603.121ZM108.411 603.121H109.642V613.163H108.411V603.121ZM111.494 605.875H112.745V613.163H111.494V605.875ZM111.494 603.121H112.745V604.515H111.494V603.121Z" fill="#69889D"/>
<path d="M278.918 560.116H280.244V565.011L285.139 560.116H287.019L282.842 564.163L287.135 570.158H285.364L281.851 565.12L280.244 566.658V570.158H278.918V560.116ZM289.035 568.21C289.035 568.565 289.165 568.846 289.425 569.051C289.685 569.256 289.992 569.358 290.348 569.358C290.781 569.358 291.2 569.258 291.605 569.058C292.289 568.725 292.631 568.18 292.631 567.424V566.433C292.48 566.528 292.287 566.608 292.05 566.672C291.813 566.736 291.58 566.781 291.353 566.809L290.607 566.904C290.161 566.964 289.826 567.057 289.603 567.185C289.224 567.399 289.035 567.741 289.035 568.21ZM292.016 565.722C292.298 565.685 292.487 565.567 292.583 565.366C292.638 565.257 292.665 565.1 292.665 564.895C292.665 564.475 292.515 564.172 292.214 563.985C291.918 563.794 291.492 563.698 290.936 563.698C290.293 563.698 289.837 563.871 289.568 564.218C289.418 564.409 289.32 564.694 289.274 565.072H288.126C288.149 564.17 288.44 563.543 289.001 563.192C289.566 562.837 290.22 562.659 290.963 562.659C291.824 562.659 292.524 562.823 293.062 563.151C293.595 563.479 293.861 563.99 293.861 564.683V568.9C293.861 569.028 293.886 569.131 293.937 569.208C293.991 569.285 294.103 569.324 294.271 569.324C294.326 569.324 294.388 569.322 294.456 569.317C294.524 569.308 294.597 569.297 294.675 569.283V570.192C294.483 570.247 294.338 570.281 294.237 570.295C294.137 570.309 294 570.315 293.827 570.315C293.403 570.315 293.096 570.165 292.904 569.864C292.804 569.705 292.733 569.479 292.692 569.188C292.442 569.516 292.082 569.8 291.612 570.042C291.143 570.284 290.626 570.404 290.061 570.404C289.382 570.404 288.826 570.199 288.393 569.789C287.964 569.374 287.75 568.857 287.75 568.237C287.75 567.558 287.962 567.032 288.386 566.658C288.81 566.285 289.366 566.054 290.054 565.968L292.016 565.722ZM297.115 562.837V567.697C297.115 568.071 297.174 568.376 297.293 568.613C297.512 569.051 297.92 569.27 298.517 569.27C299.373 569.27 299.957 568.887 300.267 568.121C300.435 567.711 300.52 567.148 300.52 566.433V562.837H301.75V570.158H300.588L300.602 569.078C300.442 569.356 300.244 569.591 300.007 569.782C299.537 570.165 298.968 570.356 298.298 570.356C297.254 570.356 296.543 570.008 296.165 569.311C295.96 568.937 295.857 568.438 295.857 567.813V562.837H297.115ZM303.924 560.793H305.168V562.837H306.337V563.842H305.168V568.62C305.168 568.875 305.255 569.046 305.428 569.133C305.523 569.183 305.683 569.208 305.906 569.208C305.965 569.208 306.029 569.208 306.098 569.208C306.166 569.203 306.246 569.197 306.337 569.188V570.158C306.196 570.199 306.048 570.229 305.893 570.247C305.742 570.265 305.578 570.274 305.4 570.274C304.826 570.274 304.437 570.129 304.231 569.837C304.026 569.541 303.924 569.158 303.924 568.688V563.842H302.933V562.837H303.924V560.793ZM308.805 561.538H307.574V560.116H308.805V561.538ZM306.412 572.011C306.964 571.993 307.294 571.942 307.403 571.86C307.517 571.783 307.574 571.535 307.574 571.115V562.871H308.805V571.245C308.805 571.778 308.718 572.177 308.545 572.441C308.258 572.888 307.713 573.111 306.911 573.111C306.852 573.111 306.788 573.109 306.72 573.104C306.656 573.1 306.553 573.091 306.412 573.077V572.011ZM311.635 568.21C311.635 568.565 311.765 568.846 312.024 569.051C312.284 569.256 312.592 569.358 312.947 569.358C313.38 569.358 313.799 569.258 314.205 569.058C314.889 568.725 315.23 568.18 315.23 567.424V566.433C315.08 566.528 314.886 566.608 314.649 566.672C314.412 566.736 314.18 566.781 313.952 566.809L313.207 566.904C312.76 566.964 312.425 567.057 312.202 567.185C311.824 567.399 311.635 567.741 311.635 568.21ZM314.615 565.722C314.898 565.685 315.087 565.567 315.183 565.366C315.237 565.257 315.265 565.1 315.265 564.895C315.265 564.475 315.114 564.172 314.813 563.985C314.517 563.794 314.091 563.698 313.535 563.698C312.893 563.698 312.437 563.871 312.168 564.218C312.018 564.409 311.92 564.694 311.874 565.072H310.726C310.748 564.17 311.04 563.543 311.601 563.192C312.166 562.837 312.82 562.659 313.562 562.659C314.424 562.659 315.123 562.823 315.661 563.151C316.194 563.479 316.461 563.99 316.461 564.683V568.9C316.461 569.028 316.486 569.131 316.536 569.208C316.591 569.285 316.702 569.324 316.871 569.324C316.926 569.324 316.987 569.322 317.056 569.317C317.124 569.308 317.197 569.297 317.274 569.283V570.192C317.083 570.247 316.937 570.281 316.837 570.295C316.737 570.309 316.6 570.315 316.427 570.315C316.003 570.315 315.695 570.165 315.504 569.864C315.404 569.705 315.333 569.479 315.292 569.188C315.041 569.516 314.681 569.8 314.212 570.042C313.743 570.284 313.225 570.404 312.66 570.404C311.981 570.404 311.425 570.199 310.992 569.789C310.564 569.374 310.35 568.857 310.35 568.237C310.35 567.558 310.562 567.032 310.985 566.658C311.409 566.285 311.965 566.054 312.653 565.968L314.615 565.722ZM318.519 560.116H319.749V570.158H318.519V560.116ZM322.545 568.21C322.545 568.565 322.675 568.846 322.935 569.051C323.194 569.256 323.502 569.358 323.857 569.358C324.29 569.358 324.71 569.258 325.115 569.058C325.799 568.725 326.141 568.18 326.141 567.424V566.433C325.99 566.528 325.797 566.608 325.56 566.672C325.323 566.736 325.09 566.781 324.862 566.809L324.117 566.904C323.671 566.964 323.336 567.057 323.112 567.185C322.734 567.399 322.545 567.741 322.545 568.21ZM325.525 565.722C325.808 565.685 325.997 565.567 326.093 565.366C326.147 565.257 326.175 565.1 326.175 564.895C326.175 564.475 326.024 564.172 325.724 563.985C325.427 563.794 325.001 563.698 324.445 563.698C323.803 563.698 323.347 563.871 323.078 564.218C322.928 564.409 322.83 564.694 322.784 565.072H321.636C321.659 564.17 321.95 563.543 322.511 563.192C323.076 562.837 323.73 562.659 324.473 562.659C325.334 562.659 326.034 562.823 326.571 563.151C327.104 563.479 327.371 563.99 327.371 564.683V568.9C327.371 569.028 327.396 569.131 327.446 569.208C327.501 569.285 327.613 569.324 327.781 569.324C327.836 569.324 327.897 569.322 327.966 569.317C328.034 569.308 328.107 569.297 328.185 569.283V570.192C327.993 570.247 327.847 570.281 327.747 570.295C327.647 570.309 327.51 570.315 327.337 570.315C326.913 570.315 326.605 570.165 326.414 569.864C326.314 569.705 326.243 569.479 326.202 569.188C325.951 569.516 325.591 569.8 325.122 570.042C324.653 570.284 324.135 570.404 323.57 570.404C322.891 570.404 322.335 570.199 321.902 569.789C321.474 569.374 321.26 568.857 321.26 568.237C321.26 567.558 321.472 567.032 321.896 566.658C322.319 566.285 322.875 566.054 323.563 565.968L325.525 565.722Z" fill="#69889D"/>
<path d="M223.995 441.006C223.995 441.854 223.87 442.512 223.619 442.981C223.154 443.838 222.27 444.267 220.967 444.267C220.215 444.267 219.572 444.064 219.039 443.658C218.506 443.248 218.239 442.521 218.239 441.478V440.76H219.518V441.478C219.518 442.024 219.638 442.437 219.88 442.715C220.126 442.988 220.507 443.125 221.021 443.125C221.746 443.125 222.22 442.877 222.443 442.38C222.58 442.075 222.648 441.498 222.648 440.65V433.958H223.995V441.006ZM227.133 436.679V441.539C227.133 441.913 227.192 442.218 227.311 442.455C227.529 442.893 227.937 443.111 228.534 443.111C229.391 443.111 229.974 442.729 230.284 441.963C230.453 441.553 230.537 440.99 230.537 440.274V436.679H231.768V444H230.605L230.619 442.92C230.46 443.198 230.261 443.433 230.024 443.624C229.555 444.007 228.985 444.198 228.315 444.198C227.272 444.198 226.561 443.85 226.183 443.152C225.978 442.779 225.875 442.28 225.875 441.655V436.679H227.133ZM229.396 434.122H230.674V435.544H229.396V434.122ZM227.14 434.122H228.418V435.544H227.14V434.122ZM233.729 436.679H234.898V437.943C234.994 437.697 235.229 437.399 235.603 437.048C235.976 436.692 236.407 436.515 236.895 436.515C236.917 436.515 236.956 436.517 237.011 436.521C237.065 436.526 237.159 436.535 237.291 436.549V437.848C237.218 437.834 237.15 437.825 237.086 437.82C237.027 437.816 236.961 437.813 236.888 437.813C236.268 437.813 235.792 438.014 235.459 438.415C235.126 438.812 234.96 439.27 234.96 439.789V444H233.729V436.679ZM238.357 436.713H239.608V444H238.357V436.713ZM238.357 433.958H239.608V435.353H238.357V433.958Z" fill="#69889D"/>
<path d="M7.97754 362.873H12.4961C13.3893 362.873 14.1094 363.126 14.6562 363.632C15.2031 364.133 15.4766 364.84 15.4766 365.751C15.4766 366.535 15.2327 367.218 14.7451 367.802C14.2575 368.381 13.5078 368.67 12.4961 368.67H9.33789V372.915H7.97754V362.873ZM14.1025 365.758C14.1025 365.02 13.8291 364.518 13.2822 364.254C12.9814 364.113 12.569 364.042 12.0449 364.042H9.33789V367.521H12.0449C12.6556 367.521 13.1501 367.392 13.5283 367.132C13.9111 366.872 14.1025 366.414 14.1025 365.758ZM20.0703 365.43C20.5898 365.43 21.0934 365.553 21.5811 365.799C22.0687 366.04 22.4401 366.355 22.6953 366.742C22.9414 367.111 23.1055 367.542 23.1875 368.034C23.2604 368.371 23.2969 368.909 23.2969 369.647H17.9307C17.9535 370.39 18.1289 370.987 18.457 371.438C18.7852 371.885 19.2933 372.108 19.9814 372.108C20.624 372.108 21.1367 371.896 21.5195 371.473C21.7383 371.227 21.8932 370.942 21.9844 370.618H23.1943C23.1624 370.887 23.0553 371.188 22.873 371.521C22.6953 371.849 22.4948 372.118 22.2715 372.327C21.8978 372.692 21.4352 372.938 20.8838 373.065C20.5876 373.138 20.2526 373.175 19.8789 373.175C18.9674 373.175 18.195 372.844 17.5615 372.184C16.9281 371.518 16.6113 370.589 16.6113 369.395C16.6113 368.219 16.9303 367.264 17.5684 366.53C18.2064 365.797 19.0404 365.43 20.0703 365.43ZM22.0322 368.67C21.9821 368.137 21.8659 367.711 21.6836 367.392C21.3464 366.799 20.7835 366.503 19.9951 366.503C19.43 366.503 18.9561 366.708 18.5732 367.118C18.1904 367.524 17.9876 368.041 17.9648 368.67H22.0322ZM27.8633 365.43C28.3828 365.43 28.8864 365.553 29.374 365.799C29.8617 366.04 30.2331 366.355 30.4883 366.742C30.7344 367.111 30.8984 367.542 30.9805 368.034C31.0534 368.371 31.0898 368.909 31.0898 369.647H25.7236C25.7464 370.39 25.9219 370.987 26.25 371.438C26.5781 371.885 27.0863 372.108 27.7744 372.108C28.417 372.108 28.9297 371.896 29.3125 371.473C29.5312 371.227 29.6862 370.942 29.7773 370.618H30.9873C30.9554 370.887 30.8483 371.188 30.666 371.521C30.4883 371.849 30.2878 372.118 30.0645 372.327C29.6908 372.692 29.2282 372.938 28.6768 373.065C28.3805 373.138 28.0456 373.175 27.6719 373.175C26.7604 373.175 25.988 372.844 25.3545 372.184C24.721 371.518 24.4043 370.589 24.4043 369.395C24.4043 368.219 24.7233 367.264 25.3613 366.53C25.9993 365.797 26.8333 365.43 27.8633 365.43ZM29.8252 368.67C29.7751 368.137 29.6589 367.711 29.4766 367.392C29.1393 366.799 28.5765 366.503 27.7881 366.503C27.223 366.503 26.749 366.708 26.3662 367.118C25.9834 367.524 25.7806 368.041 25.7578 368.67H29.8252ZM32.8535 363.55H34.0977V365.594H35.2666V366.599H34.0977V371.377C34.0977 371.632 34.1842 371.803 34.3574 371.89C34.4531 371.94 34.6126 371.965 34.8359 371.965C34.8952 371.965 34.959 371.965 35.0273 371.965C35.0957 371.96 35.1755 371.953 35.2666 371.944V372.915C35.1253 372.956 34.9772 372.986 34.8223 373.004C34.6719 373.022 34.5078 373.031 34.3301 373.031C33.7559 373.031 33.3662 372.885 33.1611 372.594C32.9561 372.298 32.8535 371.915 32.8535 371.445V366.599H31.8623V365.594H32.8535V363.55ZM36.5381 365.594H37.707V366.858C37.8027 366.612 38.0374 366.314 38.4111 365.963C38.7848 365.607 39.2155 365.43 39.7031 365.43C39.7259 365.43 39.7646 365.432 39.8193 365.437C39.874 365.441 39.9674 365.45 40.0996 365.464V366.763C40.0267 366.749 39.9583 366.74 39.8945 366.735C39.8353 366.731 39.7692 366.729 39.6963 366.729C39.0765 366.729 38.6003 366.929 38.2676 367.33C37.9349 367.727 37.7686 368.185 37.7686 368.704V372.915H36.5381V365.594ZM41.166 365.628H42.417V372.915H41.166V365.628ZM41.166 362.873H42.417V364.268H41.166V362.873Z" fill="#0C0C0C"/>
<path d="M235.93 330.152H237.29V338.998H242.376V340.194H235.93V330.152ZM244.502 338.246C244.502 338.602 244.632 338.882 244.892 339.087C245.151 339.292 245.459 339.395 245.814 339.395C246.247 339.395 246.667 339.294 247.072 339.094C247.756 338.761 248.098 338.216 248.098 337.46V336.469C247.947 336.564 247.754 336.644 247.517 336.708C247.28 336.772 247.047 336.817 246.819 336.845L246.074 336.94C245.628 337 245.293 337.093 245.069 337.221C244.691 337.435 244.502 337.777 244.502 338.246ZM247.482 335.758C247.765 335.721 247.954 335.603 248.05 335.402C248.104 335.293 248.132 335.136 248.132 334.931C248.132 334.511 247.981 334.208 247.681 334.021C247.384 333.83 246.958 333.734 246.402 333.734C245.76 333.734 245.304 333.908 245.035 334.254C244.885 334.445 244.787 334.73 244.741 335.108H243.593C243.616 334.206 243.907 333.579 244.468 333.229C245.033 332.873 245.687 332.695 246.43 332.695C247.291 332.695 247.991 332.859 248.528 333.188C249.062 333.516 249.328 334.026 249.328 334.719V338.937C249.328 339.064 249.353 339.167 249.403 339.244C249.458 339.322 249.57 339.36 249.738 339.36C249.793 339.36 249.854 339.358 249.923 339.354C249.991 339.344 250.064 339.333 250.142 339.319V340.229C249.95 340.283 249.804 340.317 249.704 340.331C249.604 340.345 249.467 340.352 249.294 340.352C248.87 340.352 248.562 340.201 248.371 339.9C248.271 339.741 248.2 339.515 248.159 339.224C247.909 339.552 247.549 339.837 247.079 340.078C246.61 340.32 246.092 340.44 245.527 340.44C244.848 340.44 244.292 340.235 243.859 339.825C243.431 339.41 243.217 338.893 243.217 338.273C243.217 337.594 243.429 337.068 243.853 336.694C244.276 336.321 244.832 336.09 245.521 336.004L247.482 335.758ZM253.936 332.743C254.51 332.743 255.011 332.884 255.439 333.167C255.672 333.326 255.909 333.559 256.15 333.864V332.941H257.285V339.6C257.285 340.529 257.148 341.263 256.875 341.801C256.365 342.794 255.401 343.291 253.983 343.291C253.195 343.291 252.532 343.113 251.994 342.758C251.456 342.407 251.156 341.855 251.092 341.104H252.343C252.402 341.432 252.521 341.685 252.698 341.862C252.976 342.136 253.414 342.272 254.011 342.272C254.954 342.272 255.572 341.94 255.863 341.274C256.036 340.882 256.116 340.183 256.103 339.176C255.856 339.549 255.56 339.827 255.214 340.01C254.868 340.192 254.41 340.283 253.84 340.283C253.047 340.283 252.352 340.003 251.755 339.442C251.162 338.877 250.866 337.945 250.866 336.646C250.866 335.421 251.165 334.464 251.762 333.775C252.363 333.087 253.088 332.743 253.936 332.743ZM256.15 336.503C256.15 335.596 255.964 334.924 255.59 334.486C255.216 334.049 254.74 333.83 254.161 333.83C253.295 333.83 252.703 334.236 252.384 335.047C252.215 335.48 252.131 336.047 252.131 336.749C252.131 337.574 252.297 338.203 252.63 338.636C252.967 339.064 253.418 339.278 253.983 339.278C254.868 339.278 255.49 338.88 255.85 338.082C256.05 337.631 256.15 337.104 256.15 336.503ZM262.193 332.709C262.713 332.709 263.216 332.832 263.704 333.078C264.192 333.32 264.563 333.634 264.818 334.021C265.064 334.391 265.229 334.821 265.311 335.313C265.383 335.651 265.42 336.188 265.42 336.927H260.054C260.076 337.67 260.252 338.267 260.58 338.718C260.908 339.164 261.416 339.388 262.104 339.388C262.747 339.388 263.26 339.176 263.643 338.752C263.861 338.506 264.016 338.221 264.107 337.897H265.317C265.285 338.166 265.178 338.467 264.996 338.8C264.818 339.128 264.618 339.397 264.395 339.606C264.021 339.971 263.558 340.217 263.007 340.345C262.711 340.418 262.376 340.454 262.002 340.454C261.09 340.454 260.318 340.124 259.685 339.463C259.051 338.798 258.734 337.868 258.734 336.674C258.734 335.498 259.053 334.543 259.691 333.81C260.329 333.076 261.163 332.709 262.193 332.709ZM264.155 335.949C264.105 335.416 263.989 334.99 263.807 334.671C263.469 334.078 262.907 333.782 262.118 333.782C261.553 333.782 261.079 333.987 260.696 334.397C260.313 334.803 260.111 335.32 260.088 335.949H264.155ZM267.717 336.619C267.717 337.403 267.883 338.059 268.216 338.588C268.549 339.117 269.082 339.381 269.815 339.381C270.385 339.381 270.852 339.137 271.217 338.649C271.586 338.157 271.771 337.453 271.771 336.537C271.771 335.612 271.581 334.928 271.203 334.486C270.825 334.04 270.358 333.816 269.802 333.816C269.182 333.816 268.678 334.053 268.291 334.527C267.908 335.001 267.717 335.699 267.717 336.619ZM269.569 332.743C270.13 332.743 270.599 332.862 270.978 333.099C271.196 333.235 271.445 333.475 271.723 333.816V330.118H272.905V340.194H271.798V339.176C271.511 339.627 271.171 339.953 270.779 340.153C270.387 340.354 269.938 340.454 269.433 340.454C268.617 340.454 267.91 340.112 267.313 339.429C266.716 338.741 266.418 337.827 266.418 336.688C266.418 335.621 266.689 334.698 267.231 333.919C267.778 333.135 268.558 332.743 269.569 332.743ZM274.73 332.907H275.981V340.194H274.73V332.907ZM274.73 330.152H275.981V331.547H274.73V330.152Z" fill="#69889D"/>
<path d="M201.313 132.463H203.262L206.146 140.953L209.011 132.463H210.938V142.505H209.646V136.578C209.646 136.373 209.651 136.034 209.66 135.56C209.669 135.086 209.674 134.577 209.674 134.035L206.81 142.505H205.463L202.578 134.035V134.343C202.578 134.589 202.583 134.965 202.592 135.471C202.605 135.972 202.612 136.341 202.612 136.578V142.505H201.313V132.463ZM213.789 140.557C213.789 140.912 213.919 141.192 214.179 141.397C214.438 141.603 214.746 141.705 215.102 141.705C215.535 141.705 215.954 141.605 216.359 141.404C217.043 141.072 217.385 140.527 217.385 139.771V138.779C217.234 138.875 217.041 138.955 216.804 139.019C216.567 139.082 216.334 139.128 216.106 139.155L215.361 139.251C214.915 139.31 214.58 139.404 214.356 139.531C213.978 139.745 213.789 140.087 213.789 140.557ZM216.77 138.068C217.052 138.032 217.241 137.913 217.337 137.713C217.392 137.604 217.419 137.446 217.419 137.241C217.419 136.822 217.269 136.519 216.968 136.332C216.672 136.141 216.245 136.045 215.689 136.045C215.047 136.045 214.591 136.218 214.322 136.564C214.172 136.756 214.074 137.041 214.028 137.419H212.88C212.903 136.517 213.194 135.89 213.755 135.539C214.32 135.184 214.974 135.006 215.717 135.006C216.578 135.006 217.278 135.17 217.815 135.498C218.349 135.826 218.615 136.337 218.615 137.029V141.247C218.615 141.375 218.64 141.477 218.69 141.555C218.745 141.632 218.857 141.671 219.025 141.671C219.08 141.671 219.142 141.669 219.21 141.664C219.278 141.655 219.351 141.644 219.429 141.63V142.539C219.237 142.594 219.091 142.628 218.991 142.642C218.891 142.655 218.754 142.662 218.581 142.662C218.157 142.662 217.85 142.512 217.658 142.211C217.558 142.051 217.487 141.826 217.446 141.534C217.196 141.862 216.836 142.147 216.366 142.389C215.897 142.63 215.38 142.751 214.814 142.751C214.135 142.751 213.579 142.546 213.146 142.136C212.718 141.721 212.504 141.204 212.504 140.584C212.504 139.905 212.716 139.379 213.14 139.005C213.563 138.631 214.119 138.401 214.808 138.314L216.77 138.068ZM221.582 140.557C221.582 140.912 221.712 141.192 221.972 141.397C222.231 141.603 222.539 141.705 222.895 141.705C223.327 141.705 223.747 141.605 224.152 141.404C224.836 141.072 225.178 140.527 225.178 139.771V138.779C225.027 138.875 224.834 138.955 224.597 139.019C224.36 139.082 224.127 139.128 223.899 139.155L223.154 139.251C222.708 139.31 222.373 139.404 222.149 139.531C221.771 139.745 221.582 140.087 221.582 140.557ZM224.562 138.068C224.845 138.032 225.034 137.913 225.13 137.713C225.185 137.604 225.212 137.446 225.212 137.241C225.212 136.822 225.062 136.519 224.761 136.332C224.465 136.141 224.038 136.045 223.482 136.045C222.84 136.045 222.384 136.218 222.115 136.564C221.965 136.756 221.867 137.041 221.821 137.419H220.673C220.696 136.517 220.987 135.89 221.548 135.539C222.113 135.184 222.767 135.006 223.51 135.006C224.371 135.006 225.071 135.17 225.608 135.498C226.142 135.826 226.408 136.337 226.408 137.029V141.247C226.408 141.375 226.433 141.477 226.483 141.555C226.538 141.632 226.65 141.671 226.818 141.671C226.873 141.671 226.935 141.669 227.003 141.664C227.071 141.655 227.144 141.644 227.222 141.63V142.539C227.03 142.594 226.884 142.628 226.784 142.642C226.684 142.655 226.547 142.662 226.374 142.662C225.95 142.662 225.643 142.512 225.451 142.211C225.351 142.051 225.28 141.826 225.239 141.534C224.989 141.862 224.629 142.147 224.159 142.389C223.69 142.63 223.173 142.751 222.607 142.751C221.928 142.751 221.372 142.546 220.939 142.136C220.511 141.721 220.297 141.204 220.297 140.584C220.297 139.905 220.509 139.379 220.933 139.005C221.356 138.631 221.912 138.401 222.601 138.314L224.562 138.068ZM228.466 135.184H229.635V136.448C229.73 136.202 229.965 135.904 230.339 135.553C230.713 135.197 231.143 135.02 231.631 135.02C231.654 135.02 231.692 135.022 231.747 135.026C231.802 135.031 231.895 135.04 232.027 135.054V136.353C231.954 136.339 231.886 136.33 231.822 136.325C231.763 136.321 231.697 136.318 231.624 136.318C231.004 136.318 230.528 136.519 230.195 136.92C229.863 137.316 229.696 137.774 229.696 138.294V142.505H228.466V135.184ZM233.873 138.93C233.873 139.714 234.039 140.37 234.372 140.898C234.705 141.427 235.238 141.691 235.972 141.691C236.541 141.691 237.008 141.448 237.373 140.96C237.742 140.468 237.927 139.764 237.927 138.848C237.927 137.923 237.738 137.239 237.359 136.797C236.981 136.35 236.514 136.127 235.958 136.127C235.338 136.127 234.835 136.364 234.447 136.838C234.064 137.312 233.873 138.009 233.873 138.93ZM235.726 135.054C236.286 135.054 236.756 135.172 237.134 135.409C237.353 135.546 237.601 135.785 237.879 136.127V132.429H239.062V142.505H237.954V141.486C237.667 141.938 237.327 142.263 236.936 142.464C236.544 142.664 236.095 142.765 235.589 142.765C234.773 142.765 234.067 142.423 233.47 141.739C232.873 141.051 232.574 140.137 232.574 138.998C232.574 137.932 232.845 137.009 233.388 136.229C233.935 135.446 234.714 135.054 235.726 135.054ZM242.117 135.184V140.044C242.117 140.418 242.176 140.723 242.295 140.96C242.514 141.397 242.922 141.616 243.519 141.616C244.375 141.616 244.959 141.233 245.269 140.468C245.437 140.058 245.521 139.495 245.521 138.779V135.184H246.752V142.505H245.59L245.604 141.425C245.444 141.703 245.246 141.938 245.009 142.129C244.539 142.512 243.97 142.703 243.3 142.703C242.256 142.703 241.545 142.354 241.167 141.657C240.962 141.284 240.859 140.785 240.859 140.16V135.184H242.117Z" fill="#69889D"/>
<path d="M161.103 386.094L162.299 386.115L162.24 389.498L171.084 389.652L171.06 391.033L162.216 390.878L162.157 394.261L160.961 394.24L161.103 386.094ZM169.204 385.763C169.559 385.77 169.841 385.645 170.051 385.388C170.261 385.132 170.368 384.827 170.375 384.471C170.382 384.038 170.289 383.617 170.096 383.208C169.775 382.519 169.237 382.168 168.48 382.155L167.489 382.137C167.582 382.289 167.659 382.484 167.718 382.722C167.778 382.961 167.819 383.194 167.843 383.422L167.926 384.169C167.977 384.616 168.065 384.953 168.188 385.178C168.396 385.56 168.734 385.755 169.204 385.763ZM166.768 382.74C166.736 382.457 166.621 382.266 166.422 382.167C166.314 382.11 166.157 382.08 165.952 382.076C165.533 382.069 165.227 382.214 165.035 382.512C164.839 382.804 164.736 383.229 164.726 383.785C164.715 384.427 164.88 384.886 165.221 385.161C165.41 385.314 165.693 385.417 166.071 385.469L166.051 386.618C165.149 386.579 164.527 386.276 164.186 385.71C163.841 385.139 163.675 384.482 163.687 383.739C163.703 382.878 163.879 382.181 164.216 381.649C164.554 381.122 165.069 380.864 165.761 380.877L169.978 380.95C170.106 380.952 170.209 380.929 170.287 380.88C170.365 380.827 170.406 380.716 170.409 380.548C170.41 380.493 170.409 380.431 170.405 380.363C170.397 380.294 170.387 380.221 170.375 380.144L171.284 380.159C171.335 380.352 171.367 380.498 171.379 380.599C171.391 380.699 171.395 380.836 171.392 381.009C171.385 381.433 171.229 381.738 170.925 381.924C170.764 382.021 170.537 382.088 170.245 382.124C170.568 382.38 170.847 382.745 171.08 383.219C171.313 383.692 171.425 384.212 171.415 384.776C171.403 385.455 171.189 386.008 170.771 386.433C170.349 386.854 169.828 387.06 169.208 387.049C168.53 387.037 168.007 386.816 167.641 386.386C167.274 385.955 167.054 385.395 166.98 384.706L166.768 382.74ZM161.231 378.74L161.253 377.509L171.293 377.685L171.271 378.915L161.231 378.74ZM161.286 375.623L161.307 374.393L171.347 374.568L171.326 375.798L161.286 375.623ZM164.094 372.589L164.116 371.338L171.401 371.465L171.38 372.716L164.094 372.589ZM161.34 372.541L161.362 371.29L162.756 371.314L162.734 372.565L161.34 372.541ZM164.114 369.472L164.135 368.303L165.173 368.321C164.751 367.967 164.45 367.595 164.27 367.205C164.09 366.814 164.004 366.382 164.012 365.908C164.03 364.869 164.405 364.174 165.136 363.822C165.536 363.628 166.105 363.538 166.843 363.551L171.538 363.633L171.516 364.884L166.903 364.803C166.457 364.795 166.095 364.855 165.82 364.982C165.36 365.193 165.126 365.586 165.116 366.16C165.11 366.451 165.136 366.691 165.192 366.879C165.286 367.218 165.481 367.517 165.778 367.778C166.016 367.987 166.264 368.126 166.523 368.194C166.777 368.258 167.143 368.294 167.621 368.302L171.456 368.369L171.434 369.599L164.114 369.472ZM164.25 361.68L164.271 360.511L165.309 360.53C164.887 360.176 164.586 359.804 164.406 359.413C164.226 359.023 164.14 358.59 164.148 358.117C164.166 357.078 164.541 356.382 165.272 356.03C165.672 355.837 166.241 355.747 166.979 355.759L171.674 355.841L171.652 357.092L167.039 357.012C166.592 357.004 166.231 357.064 165.956 357.191C165.496 357.402 165.262 357.794 165.251 358.368C165.246 358.66 165.272 358.9 165.328 359.087C165.422 359.426 165.617 359.726 165.914 359.986C166.152 360.196 166.4 360.334 166.659 360.403C166.913 360.466 167.279 360.502 167.757 360.511L171.592 360.578L171.57 361.808L164.25 361.68ZM164.455 349.959L164.475 348.79L165.74 348.812C165.495 348.712 165.201 348.472 164.857 348.093C164.508 347.713 164.337 347.279 164.346 346.792C164.346 346.769 164.349 346.73 164.355 346.676C164.36 346.621 164.371 346.528 164.387 346.396L165.686 346.419C165.671 346.491 165.66 346.559 165.655 346.623C165.649 346.682 165.646 346.748 165.644 346.821C165.634 347.441 165.826 347.92 166.221 348.26C166.612 348.6 167.067 348.774 167.586 348.783L171.796 348.857L171.775 350.087L164.455 349.959ZM164.57 345.332L164.592 344.082L171.877 344.209L171.855 345.46L164.57 345.332ZM161.815 345.284L161.837 344.034L163.231 344.058L163.21 345.309L161.815 345.284ZM164.59 342.215L164.61 341.047L165.649 341.065C165.227 340.711 164.926 340.339 164.746 339.948C164.566 339.558 164.48 339.126 164.488 338.652C164.506 337.613 164.881 336.917 165.612 336.566C166.011 336.372 166.58 336.282 167.319 336.295L172.014 336.377L171.992 337.627L167.379 337.547C166.932 337.539 166.571 337.599 166.295 337.726C165.836 337.937 165.601 338.329 165.591 338.903C165.586 339.195 165.612 339.435 165.668 339.623C165.762 339.961 165.957 340.261 166.253 340.522C166.491 340.731 166.74 340.87 166.998 340.938C167.252 341.002 167.619 341.038 168.097 341.046L171.931 341.113L171.91 342.343L164.59 342.215ZM164.641 331.838C164.651 331.264 164.801 330.765 165.091 330.342C165.255 330.112 165.491 329.88 165.801 329.643L164.878 329.627L164.898 328.493L171.555 328.609C172.484 328.625 173.215 328.775 173.748 329.057C174.733 329.585 175.212 330.557 175.188 331.975C175.174 332.763 174.985 333.423 174.62 333.954C174.26 334.486 173.703 334.777 172.95 334.827L172.972 333.577C173.301 333.523 173.556 333.409 173.737 333.234C174.015 332.961 174.159 332.526 174.17 331.929C174.186 330.986 173.864 330.363 173.204 330.06C172.816 329.88 172.118 329.788 171.11 329.784C171.48 330.037 171.752 330.338 171.929 330.687C172.105 331.036 172.188 331.496 172.178 332.066C172.164 332.858 171.872 333.548 171.301 334.135C170.726 334.718 169.789 334.998 168.49 334.975C167.264 334.954 166.313 334.639 165.635 334.03C164.958 333.416 164.626 332.686 164.641 331.838ZM168.439 329.689C167.532 329.674 166.857 329.849 166.413 330.215C165.969 330.581 165.742 331.053 165.732 331.632C165.717 332.497 166.112 333.097 166.917 333.43C167.347 333.606 167.913 333.7 168.615 333.712C169.439 333.727 170.071 333.572 170.51 333.246C170.944 332.917 171.166 332.469 171.176 331.904C171.191 331.021 170.803 330.392 170.012 330.018C169.565 329.809 169.04 329.7 168.439 329.689ZM164.931 322.703L164.951 321.534L166.215 321.556C165.971 321.456 165.677 321.216 165.332 320.836C164.983 320.457 164.813 320.023 164.822 319.535C164.822 319.513 164.825 319.474 164.831 319.419C164.836 319.365 164.847 319.271 164.863 319.14L166.161 319.162C166.146 319.235 166.136 319.303 166.13 319.367C166.125 319.426 166.121 319.492 166.12 319.565C166.109 320.185 166.302 320.664 166.697 321.004C167.087 321.343 167.542 321.518 168.062 321.527L172.272 321.6L172.25 322.83L164.931 322.703ZM171.589 315.285C171.603 314.469 171.305 313.906 170.696 313.594C170.081 313.278 169.396 313.114 168.639 313.1C167.956 313.088 167.398 313.188 166.966 313.399C166.286 313.734 165.938 314.325 165.923 315.172C165.91 315.924 166.188 316.476 166.756 316.828C167.324 317.179 168.014 317.362 168.825 317.377C169.604 317.39 170.256 317.231 170.781 316.898C171.307 316.565 171.576 316.028 171.589 315.285ZM164.851 315.119C164.867 314.176 165.196 313.384 165.836 312.744C166.476 312.103 167.407 311.794 168.628 311.815C169.808 311.836 170.778 312.14 171.538 312.727C172.298 313.315 172.667 314.212 172.646 315.42C172.629 316.427 172.275 317.22 171.586 317.801C170.892 318.381 169.971 318.661 168.823 318.641C167.593 318.62 166.619 318.291 165.901 317.654C165.182 317.017 164.833 316.172 164.851 315.119ZM170.536 309.435C170.891 309.441 171.174 309.316 171.383 309.06C171.593 308.804 171.701 308.498 171.707 308.143C171.714 307.71 171.621 307.289 171.428 306.88C171.107 306.191 170.569 305.839 169.812 305.826L168.821 305.809C168.915 305.961 168.991 306.156 169.051 306.394C169.11 306.632 169.152 306.865 169.175 307.093L169.258 307.84C169.309 308.288 169.397 308.624 169.52 308.85C169.728 309.232 170.066 309.427 170.536 309.435ZM168.1 306.412C168.068 306.128 167.953 305.937 167.754 305.838C167.646 305.781 167.489 305.751 167.284 305.748C166.865 305.741 166.559 305.886 166.367 306.183C166.171 306.476 166.068 306.9 166.058 307.456C166.047 308.099 166.212 308.557 166.554 308.832C166.742 308.986 167.025 309.089 167.403 309.141L167.383 310.289C166.481 310.251 165.86 309.948 165.519 309.381C165.173 308.81 165.007 308.153 165.02 307.411C165.035 306.549 165.211 305.853 165.548 305.321C165.886 304.794 166.401 304.536 167.093 304.548L171.31 304.622C171.438 304.624 171.541 304.601 171.619 304.552C171.697 304.499 171.738 304.388 171.741 304.219C171.742 304.164 171.741 304.103 171.737 304.034C171.73 303.966 171.719 303.893 171.707 303.815L172.616 303.831C172.667 304.023 172.699 304.17 172.711 304.27C172.723 304.371 172.727 304.507 172.724 304.681C172.717 305.104 172.561 305.409 172.257 305.595C172.096 305.693 171.869 305.76 171.577 305.795C171.901 306.052 172.179 306.417 172.412 306.89C172.646 307.364 172.757 307.883 172.747 308.448C172.736 309.127 172.521 309.679 172.103 310.105C171.681 310.526 171.16 310.731 170.541 310.72C169.862 310.708 169.339 310.487 168.973 310.057C168.607 309.627 168.386 309.067 168.312 308.377L168.1 306.412ZM169.042 301.779C169.826 301.793 170.485 301.638 171.019 301.315C171.554 300.991 171.827 300.463 171.84 299.729C171.85 299.16 171.614 298.688 171.133 298.315C170.647 297.938 169.947 297.741 169.031 297.725C168.106 297.709 167.419 297.886 166.971 298.256C166.518 298.627 166.286 299.09 166.276 299.646C166.266 300.265 166.494 300.773 166.961 301.168C167.428 301.559 168.122 301.763 169.042 301.779ZM165.199 299.859C165.209 299.299 165.336 298.832 165.579 298.458C165.72 298.241 165.963 297.997 166.31 297.725L162.612 297.661L162.633 296.478L172.707 296.654L172.688 297.761L171.67 297.743C172.116 298.038 172.435 298.384 172.629 298.779C172.823 299.174 172.915 299.625 172.906 300.131C172.892 300.946 172.538 301.646 171.844 302.231C171.146 302.816 170.227 303.099 169.088 303.079C168.022 303.06 167.104 302.773 166.334 302.217C165.56 301.657 165.182 300.871 165.199 299.859Z" fill="#0C0C0C"/>
<path d="M12.4434 170.699C12.4434 170.175 12.3044 169.801 12.0264 169.578C11.7529 169.355 11.3678 169.243 10.8711 169.243H8.90918V172.21H10.8711C11.3678 172.21 11.7529 172.089 12.0264 171.848C12.3044 171.606 12.4434 171.223 12.4434 170.699ZM14.5283 170.686C14.5283 171.875 14.2275 172.716 13.626 173.208C13.0244 173.7 12.1654 173.946 11.0488 173.946H8.90918V177.569H6.81738V167.493H11.2061C12.2178 167.493 13.0244 167.753 13.626 168.272C14.2275 168.792 14.5283 169.596 14.5283 170.686ZM19.293 176.195C19.8626 176.195 20.3001 175.993 20.6055 175.587C20.9108 175.181 21.0635 174.605 21.0635 173.857C21.0635 173.11 20.9108 172.536 20.6055 172.135C20.3001 171.729 19.8626 171.526 19.293 171.526C18.7233 171.526 18.2835 171.729 17.9736 172.135C17.6683 172.536 17.5156 173.11 17.5156 173.857C17.5156 174.605 17.6683 175.181 17.9736 175.587C18.2835 175.993 18.7233 176.195 19.293 176.195ZM23.1074 173.857C23.1074 174.951 22.793 175.888 22.1641 176.667C21.5352 177.442 20.5804 177.829 19.2998 177.829C18.0192 177.829 17.0645 177.442 16.4355 176.667C15.8066 175.888 15.4922 174.951 15.4922 173.857C15.4922 172.782 15.8066 171.85 16.4355 171.062C17.0645 170.273 18.0192 169.879 19.2998 169.879C20.5804 169.879 21.5352 170.273 22.1641 171.062C22.793 171.85 23.1074 172.782 23.1074 173.857ZM28.5557 169.94C28.5921 169.94 28.6217 169.943 28.6445 169.947C28.6719 169.947 28.7288 169.95 28.8154 169.954V171.95C28.6924 171.937 28.583 171.927 28.4873 171.923C28.3916 171.918 28.3141 171.916 28.2549 171.916C27.471 171.916 26.9447 172.171 26.6758 172.682C26.5254 172.969 26.4502 173.411 26.4502 174.008V177.569H24.4883V170.118H26.3477V171.417C26.6484 170.92 26.9105 170.581 27.1338 170.398C27.4984 170.093 27.9723 169.94 28.5557 169.94ZM29.1982 171.574V170.187H30.2373V168.108H32.165V170.187H33.375V171.574H32.165V175.512C32.165 175.817 32.2038 176.008 32.2812 176.086C32.3587 176.159 32.5957 176.195 32.9922 176.195C33.0514 176.195 33.113 176.195 33.1768 176.195C33.2451 176.191 33.3112 176.186 33.375 176.182V177.638L32.4521 177.672C31.5316 177.704 30.9027 177.544 30.5654 177.193C30.3467 176.97 30.2373 176.626 30.2373 176.161V171.574H29.1982ZM41.8652 176.195C42.4349 176.195 42.8724 175.993 43.1777 175.587C43.4831 175.181 43.6357 174.605 43.6357 173.857C43.6357 173.11 43.4831 172.536 43.1777 172.135C42.8724 171.729 42.4349 171.526 41.8652 171.526C41.2956 171.526 40.8558 171.729 40.5459 172.135C40.2406 172.536 40.0879 173.11 40.0879 173.857C40.0879 174.605 40.2406 175.181 40.5459 175.587C40.8558 175.993 41.2956 176.195 41.8652 176.195ZM45.6797 173.857C45.6797 174.951 45.3652 175.888 44.7363 176.667C44.1074 177.442 43.1527 177.829 41.8721 177.829C40.5915 177.829 39.6367 177.442 39.0078 176.667C38.3789 175.888 38.0645 174.951 38.0645 173.857C38.0645 172.782 38.3789 171.85 39.0078 171.062C39.6367 170.273 40.5915 169.879 41.8721 169.879C43.1527 169.879 44.1074 170.273 44.7363 171.062C45.3652 171.85 45.6797 172.782 45.6797 173.857ZM49.8291 167.391C49.9521 167.391 50.0638 167.395 50.1641 167.404C50.2643 167.409 50.401 167.418 50.5742 167.432V169.018C50.4648 169.004 50.2803 168.995 50.0205 168.99C49.7653 168.981 49.5876 169.038 49.4873 169.161C49.3916 169.28 49.3438 169.412 49.3438 169.558C49.3438 169.703 49.3438 169.913 49.3438 170.187H50.6221V171.561H49.3438V177.569H47.4023V171.561H46.3154V170.187H47.3818V169.708C47.3818 168.91 47.5163 168.361 47.7852 168.061C48.0677 167.614 48.749 167.391 49.8291 167.391Z" fill="#0C0C0C"/>
<path d="M14.0908 183.981V185.766H11.0762V194.058H8.95703V185.766H5.92871V183.981H14.0908ZM18.2402 190.435C18.1172 190.512 17.9919 190.576 17.8643 190.626C17.7412 190.672 17.5703 190.715 17.3516 190.756L16.9141 190.838C16.5039 190.911 16.21 191 16.0322 191.104C15.7314 191.282 15.5811 191.558 15.5811 191.932C15.5811 192.264 15.6722 192.506 15.8545 192.656C16.0413 192.802 16.2669 192.875 16.5312 192.875C16.9505 192.875 17.3356 192.752 17.6865 192.506C18.042 192.26 18.2266 191.811 18.2402 191.159V190.435ZM17.0576 189.525C17.4176 189.48 17.6751 189.423 17.8301 189.354C18.1081 189.236 18.2471 189.051 18.2471 188.801C18.2471 188.495 18.14 188.286 17.9258 188.172C17.7161 188.053 17.4062 187.994 16.9961 187.994C16.5358 187.994 16.21 188.108 16.0186 188.336C15.8818 188.505 15.7907 188.732 15.7451 189.02H13.8652C13.9062 188.368 14.0885 187.832 14.4121 187.413C14.9271 186.757 15.8112 186.429 17.0645 186.429C17.8802 186.429 18.6048 186.59 19.2383 186.914C19.8717 187.238 20.1885 187.848 20.1885 188.746V192.164C20.1885 192.401 20.193 192.688 20.2021 193.025C20.2158 193.281 20.2546 193.454 20.3184 193.545C20.3822 193.636 20.4779 193.711 20.6055 193.771V194.058H18.4863C18.4271 193.907 18.3861 193.766 18.3633 193.634C18.3405 193.502 18.3223 193.351 18.3086 193.183C18.0397 193.474 17.7298 193.723 17.3789 193.928C16.9596 194.169 16.4857 194.29 15.957 194.29C15.2826 194.29 14.7243 194.099 14.2822 193.716C13.8447 193.328 13.626 192.782 13.626 192.075C13.626 191.159 13.9792 190.496 14.6855 190.086C15.0729 189.863 15.6426 189.703 16.3945 189.607L17.0576 189.525ZM23.9141 194.058H21.9658V183.981H23.9141V194.058ZM27.8105 194.058H25.8623V183.981H27.8105V194.058ZM31.7207 185.718H29.7451V183.92H31.7207V185.718ZM29.7451 186.606H31.7207V194.058H29.7451V186.606ZM37.7432 186.429C38.5133 186.429 39.1423 186.632 39.6299 187.037C40.1221 187.438 40.3682 188.106 40.3682 189.04V194.058H38.3721V189.525C38.3721 189.133 38.3197 188.833 38.2148 188.623C38.0234 188.24 37.6589 188.049 37.1211 188.049C36.4603 188.049 36.0068 188.329 35.7607 188.89C35.6331 189.186 35.5693 189.564 35.5693 190.024V194.058H33.6279V186.62H35.5078V187.707C35.7585 187.324 35.9954 187.049 36.2188 186.88C36.6198 186.579 37.1279 186.429 37.7432 186.429ZM46.3018 186.429C47.0719 186.429 47.7008 186.632 48.1885 187.037C48.6807 187.438 48.9268 188.106 48.9268 189.04V194.058H46.9307V189.525C46.9307 189.133 46.8783 188.833 46.7734 188.623C46.582 188.24 46.2174 188.049 45.6797 188.049C45.0189 188.049 44.5654 188.329 44.3193 188.89C44.1917 189.186 44.1279 189.564 44.1279 190.024V194.058H42.1865V186.62H44.0664V187.707C44.3171 187.324 44.554 187.049 44.7773 186.88C45.1784 186.579 45.6865 186.429 46.3018 186.429Z" fill="#0C0C0C"/>
<path d="M305.379 634.068V633.125C306.268 633.038 306.887 632.895 307.238 632.694C307.589 632.489 307.851 632.008 308.024 631.252H308.995V641H307.683V634.068H305.379ZM319.153 631.375V632.448C318.839 632.754 318.42 633.285 317.896 634.041C317.376 634.798 316.916 635.613 316.515 636.488C316.118 637.34 315.817 638.118 315.612 638.819C315.48 639.271 315.309 639.997 315.1 641H313.739C314.049 639.132 314.733 637.272 315.79 635.422C316.414 634.337 317.071 633.401 317.759 632.612H312.345V631.375H319.153ZM323.72 631.17C324.813 631.17 325.575 631.455 326.003 632.024C326.436 632.59 326.652 633.173 326.652 633.774H325.436C325.363 633.387 325.246 633.084 325.087 632.865C324.791 632.455 324.342 632.25 323.74 632.25C323.052 632.25 322.505 632.569 322.1 633.207C321.694 633.84 321.468 634.75 321.423 635.935C321.705 635.52 322.061 635.21 322.489 635.005C322.881 634.823 323.319 634.731 323.802 634.731C324.622 634.731 325.338 634.993 325.948 635.518C326.559 636.042 326.864 636.823 326.864 637.862C326.864 638.751 326.575 639.539 325.996 640.228C325.417 640.911 324.592 641.253 323.521 641.253C322.605 641.253 321.815 640.907 321.149 640.214C320.484 639.517 320.151 638.345 320.151 636.7C320.151 635.483 320.299 634.451 320.596 633.604C321.165 631.981 322.207 631.17 323.72 631.17ZM323.631 640.159C324.278 640.159 324.761 639.943 325.08 639.51C325.404 639.072 325.565 638.557 325.565 637.965C325.565 637.464 325.422 636.987 325.135 636.536C324.848 636.08 324.326 635.853 323.569 635.853C323.041 635.853 322.576 636.028 322.175 636.379C321.778 636.73 321.58 637.258 321.58 637.965C321.58 638.585 321.76 639.106 322.12 639.53C322.485 639.95 322.988 640.159 323.631 640.159ZM332.189 630.958H333.372V636.789L336.53 633.679H338.103L335.3 636.42L338.26 641H336.688L334.404 637.309L333.372 638.252V641H332.189V630.958ZM339.217 633.679H340.434V634.718C340.725 634.358 340.99 634.096 341.227 633.932C341.632 633.654 342.092 633.515 342.607 633.515C343.191 633.515 343.66 633.658 344.016 633.945C344.216 634.109 344.398 634.351 344.562 634.67C344.836 634.278 345.157 633.989 345.526 633.802C345.896 633.61 346.31 633.515 346.771 633.515C347.755 633.515 348.425 633.87 348.78 634.581C348.972 634.964 349.067 635.479 349.067 636.126V641H347.789V635.914C347.789 635.426 347.666 635.091 347.42 634.909C347.178 634.727 346.882 634.636 346.531 634.636C346.048 634.636 345.631 634.798 345.28 635.121C344.934 635.445 344.761 635.985 344.761 636.741V641H343.51V636.222C343.51 635.725 343.451 635.363 343.332 635.135C343.145 634.793 342.797 634.622 342.286 634.622C341.821 634.622 341.397 634.802 341.015 635.162C340.636 635.522 340.447 636.174 340.447 637.117V641H339.217V633.679Z" fill="#0C0C0C"/>
<path d="M7.30469 217C7.35026 216.157 7.52344 215.423 7.82422 214.799C8.12956 214.174 8.72201 213.607 9.60156 213.097L10.9141 212.338C11.502 211.996 11.9144 211.704 12.1514 211.463C12.5251 211.085 12.7119 210.652 12.7119 210.164C12.7119 209.594 12.541 209.143 12.1992 208.811C11.8574 208.473 11.4017 208.305 10.832 208.305C9.98893 208.305 9.4056 208.624 9.08203 209.262C8.90885 209.604 8.81315 210.077 8.79492 210.684H7.54395C7.55762 209.831 7.71484 209.136 8.01562 208.599C8.54883 207.651 9.48991 207.177 10.8389 207.177C11.96 207.177 12.778 207.48 13.293 208.086C13.8125 208.692 14.0723 209.367 14.0723 210.109C14.0723 210.893 13.7965 211.563 13.2451 212.119C12.9261 212.443 12.3542 212.835 11.5293 213.295L10.5928 213.814C10.1462 214.061 9.79525 214.295 9.54004 214.519C9.08431 214.915 8.7972 215.355 8.67871 215.838H14.0244V217H7.30469ZM16.3896 214.505C16.4717 215.207 16.7975 215.692 17.3672 215.961C17.6589 216.098 17.9961 216.166 18.3789 216.166C19.1081 216.166 19.6481 215.934 19.999 215.469C20.3499 215.004 20.5254 214.489 20.5254 213.924C20.5254 213.24 20.3158 212.712 19.8965 212.338C19.4818 211.964 18.9827 211.777 18.3994 211.777C17.9756 211.777 17.611 211.859 17.3057 212.023C17.0049 212.188 16.7474 212.415 16.5332 212.707L15.4668 212.646L16.2119 207.375H21.2979V208.564H17.1348L16.7178 211.285C16.9456 211.112 17.1621 210.982 17.3672 210.896C17.7318 210.745 18.1533 210.67 18.6318 210.67C19.5296 210.67 20.2907 210.959 20.915 211.538C21.5394 212.117 21.8516 212.851 21.8516 213.739C21.8516 214.664 21.5645 215.48 20.9902 216.187C20.4206 216.893 19.5091 217.246 18.2559 217.246C17.4583 217.246 16.752 217.023 16.1367 216.576C15.526 216.125 15.1842 215.435 15.1113 214.505H16.3896ZM27.252 209.679H28.4688V210.718C28.7604 210.358 29.0247 210.096 29.2617 209.932C29.6673 209.654 30.1276 209.515 30.6426 209.515C31.2259 209.515 31.6953 209.658 32.0508 209.945C32.2513 210.109 32.4336 210.351 32.5977 210.67C32.8711 210.278 33.1924 209.989 33.5615 209.802C33.9307 209.61 34.3454 209.515 34.8057 209.515C35.79 209.515 36.46 209.87 36.8154 210.581C37.0068 210.964 37.1025 211.479 37.1025 212.126V217H35.8242V211.914C35.8242 211.426 35.7012 211.091 35.4551 210.909C35.2135 210.727 34.9173 210.636 34.5664 210.636C34.0833 210.636 33.6663 210.798 33.3154 211.121C32.9691 211.445 32.7959 211.985 32.7959 212.741V217H31.5449V212.222C31.5449 211.725 31.4857 211.363 31.3672 211.135C31.1803 210.793 30.8317 210.622 30.3213 210.622C29.8564 210.622 29.4326 210.802 29.0498 211.162C28.6715 211.522 28.4824 212.174 28.4824 213.117V217H27.252V209.679ZM38.9141 209.713H40.165V217H38.9141V209.713ZM38.9141 206.958H40.165V208.353H38.9141V206.958ZM42.0312 209.679H43.2002V210.718C43.5465 210.289 43.9134 209.982 44.3008 209.795C44.6882 209.608 45.1188 209.515 45.5928 209.515C46.6318 209.515 47.3337 209.877 47.6982 210.602C47.8988 210.998 47.999 211.565 47.999 212.304V217H46.748V212.386C46.748 211.939 46.682 211.579 46.5498 211.306C46.3311 210.85 45.9346 210.622 45.3604 210.622C45.0687 210.622 44.8294 210.652 44.6426 210.711C44.3053 210.811 44.0091 211.012 43.7539 211.312C43.5488 211.554 43.4144 211.805 43.3506 212.064C43.2913 212.32 43.2617 212.687 43.2617 213.165V217H42.0312V209.679Z" fill="#0C0C0C"/>
<path d="M8.20703 228.205V227.262C9.0957 227.175 9.71549 227.032 10.0664 226.831C10.4173 226.626 10.6794 226.145 10.8525 225.389H11.8232V235.137H10.5107V228.205H8.20703ZM16.3896 232.642C16.4717 233.343 16.7975 233.829 17.3672 234.098C17.6589 234.234 17.9961 234.303 18.3789 234.303C19.1081 234.303 19.6481 234.07 19.999 233.605C20.3499 233.141 20.5254 232.626 20.5254 232.061C20.5254 231.377 20.3158 230.848 19.8965 230.475C19.4818 230.101 18.9827 229.914 18.3994 229.914C17.9756 229.914 17.611 229.996 17.3057 230.16C17.0049 230.324 16.7474 230.552 16.5332 230.844L15.4668 230.782L16.2119 225.512H21.2979V226.701H17.1348L16.7178 229.422C16.9456 229.249 17.1621 229.119 17.3672 229.032C17.7318 228.882 18.1533 228.807 18.6318 228.807C19.5296 228.807 20.2907 229.096 20.915 229.675C21.5394 230.254 21.8516 230.987 21.8516 231.876C21.8516 232.801 21.5645 233.617 20.9902 234.323C20.4206 235.03 19.5091 235.383 18.2559 235.383C17.4583 235.383 16.752 235.16 16.1367 234.713C15.526 234.262 15.1842 233.571 15.1113 232.642H16.3896ZM27.2246 225.095H28.4072V230.926L31.5654 227.815H33.1377L30.335 230.557L33.2949 235.137H31.7227L29.4395 231.445L28.4072 232.389V235.137H27.2246V225.095ZM34.252 227.815H35.4688V228.854C35.7604 228.494 36.0247 228.232 36.2617 228.068C36.6673 227.79 37.1276 227.651 37.6426 227.651C38.2259 227.651 38.6953 227.795 39.0508 228.082C39.2513 228.246 39.4336 228.488 39.5977 228.807C39.8711 228.415 40.1924 228.125 40.5615 227.938C40.9307 227.747 41.3454 227.651 41.8057 227.651C42.79 227.651 43.46 228.007 43.8154 228.718C44.0068 229.101 44.1025 229.616 44.1025 230.263V235.137H42.8242V230.051C42.8242 229.563 42.7012 229.228 42.4551 229.046C42.2135 228.864 41.9173 228.772 41.5664 228.772C41.0833 228.772 40.6663 228.934 40.3154 229.258C39.9691 229.581 39.7959 230.121 39.7959 230.878V235.137H38.5449V230.358C38.5449 229.862 38.4857 229.499 38.3672 229.271C38.1803 228.93 37.8317 228.759 37.3213 228.759C36.8564 228.759 36.4326 228.939 36.0498 229.299C35.6715 229.659 35.4824 230.311 35.4824 231.254V235.137H34.252V227.815Z" fill="#0C0C0C"/>
<path d="M84.5391 339.068V338.125C85.4277 338.038 86.0475 337.895 86.3984 337.694C86.7493 337.489 87.0114 337.008 87.1846 336.252H88.1553V346H86.8428V339.068H84.5391ZM94.7793 336.211C96.0462 336.211 96.9622 336.733 97.5273 337.776C97.9648 338.583 98.1836 339.688 98.1836 341.092C98.1836 342.423 97.9854 343.523 97.5889 344.394C97.0146 345.642 96.0758 346.267 94.7725 346.267C93.5967 346.267 92.7217 345.756 92.1475 344.735C91.6689 343.883 91.4297 342.739 91.4297 341.304C91.4297 340.192 91.5732 339.237 91.8604 338.439C92.3981 336.954 93.3711 336.211 94.7793 336.211ZM94.7656 345.146C95.4036 345.146 95.9118 344.863 96.29 344.298C96.6683 343.733 96.8574 342.68 96.8574 341.14C96.8574 340.028 96.7207 339.114 96.4473 338.398C96.1738 337.678 95.6429 337.318 94.8545 337.318C94.1299 337.318 93.599 337.66 93.2617 338.344C92.929 339.023 92.7627 340.025 92.7627 341.352C92.7627 342.35 92.8698 343.152 93.084 343.758C93.4121 344.683 93.9727 345.146 94.7656 345.146ZM103.584 338.679H104.801V339.718C105.092 339.358 105.357 339.096 105.594 338.932C105.999 338.654 106.46 338.515 106.975 338.515C107.558 338.515 108.027 338.658 108.383 338.945C108.583 339.109 108.766 339.351 108.93 339.67C109.203 339.278 109.524 338.989 109.894 338.802C110.263 338.61 110.677 338.515 111.138 338.515C112.122 338.515 112.792 338.87 113.147 339.581C113.339 339.964 113.435 340.479 113.435 341.126V346H112.156V340.914C112.156 340.426 112.033 340.091 111.787 339.909C111.546 339.727 111.249 339.636 110.898 339.636C110.415 339.636 109.998 339.798 109.647 340.121C109.301 340.445 109.128 340.985 109.128 341.741V346H107.877V341.222C107.877 340.725 107.818 340.363 107.699 340.135C107.512 339.793 107.164 339.622 106.653 339.622C106.188 339.622 105.765 339.802 105.382 340.162C105.004 340.522 104.814 341.174 104.814 342.117V346H103.584V338.679ZM115.246 338.713H116.497V346H115.246V338.713ZM115.246 335.958H116.497V337.353H115.246V335.958ZM118.363 338.679H119.532V339.718C119.879 339.289 120.245 338.982 120.633 338.795C121.02 338.608 121.451 338.515 121.925 338.515C122.964 338.515 123.666 338.877 124.03 339.602C124.231 339.998 124.331 340.565 124.331 341.304V346H123.08V341.386C123.08 340.939 123.014 340.579 122.882 340.306C122.663 339.85 122.267 339.622 121.692 339.622C121.401 339.622 121.161 339.652 120.975 339.711C120.637 339.811 120.341 340.012 120.086 340.312C119.881 340.554 119.746 340.805 119.683 341.064C119.623 341.32 119.594 341.687 119.594 342.165V346H118.363V338.679Z" fill="#0C0C0C"/>
<path d="M85.0586 361.771C85.0951 362.451 85.3571 362.92 85.8447 363.18C86.0954 363.316 86.3779 363.385 86.6924 363.385C87.2803 363.385 87.7816 363.141 88.1963 362.653C88.611 362.161 88.9049 361.165 89.0781 359.666C88.8047 360.099 88.4652 360.404 88.0596 360.582C87.6585 360.755 87.2256 360.842 86.7607 360.842C85.8174 360.842 85.07 360.548 84.5186 359.96C83.9717 359.372 83.6982 358.616 83.6982 357.69C83.6982 356.802 83.9694 356.02 84.5117 355.346C85.054 354.671 85.8538 354.334 86.9111 354.334C88.3376 354.334 89.3219 354.977 89.8643 356.262C90.165 356.968 90.3154 357.852 90.3154 358.914C90.3154 360.113 90.1354 361.174 89.7754 362.1C89.1784 363.64 88.1667 364.41 86.7402 364.41C85.7832 364.41 85.0563 364.16 84.5596 363.658C84.0628 363.157 83.8145 362.528 83.8145 361.771H85.0586ZM86.9248 359.762C87.4124 359.762 87.8568 359.602 88.2578 359.283C88.6634 358.96 88.8662 358.397 88.8662 357.595C88.8662 356.875 88.6839 356.339 88.3193 355.988C87.9593 355.633 87.499 355.455 86.9385 355.455C86.3369 355.455 85.8584 355.658 85.5029 356.063C85.152 356.465 84.9766 357.002 84.9766 357.677C84.9766 358.315 85.1315 358.823 85.4414 359.201C85.7513 359.575 86.2458 359.762 86.9248 359.762ZM95.7637 354.095H96.9463V359.926L100.104 356.815H101.677L98.874 359.557L101.834 364.137H100.262L97.9785 360.445L96.9463 361.389V364.137H95.7637V354.095ZM102.791 356.815H104.008V357.854C104.299 357.494 104.564 357.232 104.801 357.068C105.206 356.79 105.667 356.651 106.182 356.651C106.765 356.651 107.234 356.795 107.59 357.082C107.79 357.246 107.973 357.488 108.137 357.807C108.41 357.415 108.731 357.125 109.101 356.938C109.47 356.747 109.884 356.651 110.345 356.651C111.329 356.651 111.999 357.007 112.354 357.718C112.546 358.101 112.642 358.616 112.642 359.263V364.137H111.363V359.051C111.363 358.563 111.24 358.228 110.994 358.046C110.753 357.864 110.456 357.772 110.105 357.772C109.622 357.772 109.205 357.934 108.854 358.258C108.508 358.581 108.335 359.121 108.335 359.878V364.137H107.084V359.358C107.084 358.862 107.025 358.499 106.906 358.271C106.719 357.93 106.371 357.759 105.86 357.759C105.396 357.759 104.972 357.939 104.589 358.299C104.211 358.659 104.021 359.311 104.021 360.254V364.137H102.791V356.815Z" fill="#0C0C0C"/>
<path d="M90.4189 296.724V298.508H87.4043V306.8H85.2852V298.508H82.2568V296.724H90.4189ZM94.5684 303.177C94.4453 303.254 94.32 303.318 94.1924 303.368C94.0693 303.414 93.8984 303.457 93.6797 303.498L93.2422 303.58C92.832 303.653 92.5381 303.742 92.3604 303.847C92.0596 304.024 91.9092 304.3 91.9092 304.674C91.9092 305.007 92.0003 305.248 92.1826 305.398C92.3695 305.544 92.5951 305.617 92.8594 305.617C93.2786 305.617 93.6637 305.494 94.0146 305.248C94.3701 305.002 94.5547 304.553 94.5684 303.901V303.177ZM93.3857 302.268C93.7458 302.222 94.0033 302.165 94.1582 302.097C94.4362 301.978 94.5752 301.794 94.5752 301.543C94.5752 301.238 94.4681 301.028 94.2539 300.914C94.0443 300.796 93.7344 300.736 93.3242 300.736C92.8639 300.736 92.5381 300.85 92.3467 301.078C92.21 301.247 92.1188 301.475 92.0732 301.762H90.1934C90.2344 301.11 90.4167 300.575 90.7402 300.155C91.2552 299.499 92.1393 299.171 93.3926 299.171C94.2083 299.171 94.9329 299.333 95.5664 299.656C96.1999 299.98 96.5166 300.59 96.5166 301.488V304.906C96.5166 305.143 96.5212 305.43 96.5303 305.768C96.5439 306.023 96.5827 306.196 96.6465 306.287C96.7103 306.378 96.806 306.453 96.9336 306.513V306.8H94.8145C94.7552 306.649 94.7142 306.508 94.6914 306.376C94.6686 306.244 94.6504 306.093 94.6367 305.925C94.3678 306.216 94.0579 306.465 93.707 306.67C93.2878 306.911 92.8138 307.032 92.2852 307.032C91.6107 307.032 91.0524 306.841 90.6104 306.458C90.1729 306.071 89.9541 305.524 89.9541 304.817C89.9541 303.901 90.3073 303.238 91.0137 302.828C91.401 302.605 91.9707 302.445 92.7227 302.35L93.3857 302.268ZM100.242 306.8H98.2939V296.724H100.242V306.8ZM104.139 306.8H102.19V296.724H104.139V306.8ZM108.049 298.46H106.073V296.662H108.049V298.46ZM106.073 299.349H108.049V306.8H106.073V299.349ZM114.071 299.171C114.841 299.171 115.47 299.374 115.958 299.779C116.45 300.18 116.696 300.848 116.696 301.782V306.8H114.7V302.268C114.7 301.876 114.648 301.575 114.543 301.365C114.352 300.982 113.987 300.791 113.449 300.791C112.788 300.791 112.335 301.071 112.089 301.632C111.961 301.928 111.897 302.306 111.897 302.767V306.8H109.956V299.362H111.836V300.449C112.087 300.066 112.324 299.791 112.547 299.622C112.948 299.321 113.456 299.171 114.071 299.171ZM122.63 299.171C123.4 299.171 124.029 299.374 124.517 299.779C125.009 300.18 125.255 300.848 125.255 301.782V306.8H123.259V302.268C123.259 301.876 123.206 301.575 123.102 301.365C122.91 300.982 122.546 300.791 122.008 300.791C121.347 300.791 120.894 301.071 120.647 301.632C120.52 301.928 120.456 302.306 120.456 302.767V306.8H118.515V299.362H120.395V300.449C120.645 300.066 120.882 299.791 121.105 299.622C121.507 299.321 122.015 299.171 122.63 299.171Z" fill="#0C0C0C"/>
<path d="M85.8525 319.48H88.4092L87.1514 315.516L85.8525 319.48ZM85.9824 313.212H88.3613L91.9297 323.288H89.6465L88.9971 321.217H85.2852L84.5879 323.288H82.3867L85.9824 313.212ZM95.0605 314.948H93.085V313.15H95.0605V314.948ZM93.085 315.837H95.0605V323.288H93.085V315.837ZM101.001 315.659C101.037 315.659 101.067 315.661 101.09 315.666C101.117 315.666 101.174 315.668 101.261 315.673V317.669C101.138 317.655 101.028 317.646 100.933 317.642C100.837 317.637 100.759 317.635 100.7 317.635C99.9163 317.635 99.39 317.89 99.1211 318.4C98.9707 318.688 98.8955 319.13 98.8955 319.727V323.288H96.9336V315.837H98.793V317.136C99.0938 316.639 99.3558 316.299 99.5791 316.117C99.9437 315.812 100.418 315.659 101.001 315.659ZM107.543 319.562C107.543 318.988 107.411 318.48 107.146 318.038C106.887 317.596 106.463 317.375 105.875 317.375C105.169 317.375 104.683 317.71 104.419 318.38C104.282 318.735 104.214 319.187 104.214 319.733C104.214 320.599 104.444 321.208 104.904 321.559C105.178 321.764 105.501 321.866 105.875 321.866C106.417 321.866 106.83 321.657 107.112 321.237C107.399 320.818 107.543 320.26 107.543 319.562ZM106.436 315.673C107.306 315.673 108.042 315.994 108.644 316.637C109.25 317.279 109.553 318.223 109.553 319.467C109.553 320.779 109.257 321.78 108.664 322.468C108.076 323.156 107.317 323.5 106.388 323.5C105.795 323.5 105.303 323.352 104.911 323.056C104.697 322.892 104.487 322.652 104.282 322.338V326.221H102.354V315.837H104.221V316.938C104.43 316.614 104.654 316.359 104.891 316.172C105.324 315.839 105.839 315.673 106.436 315.673ZM114.311 321.914C114.88 321.914 115.318 321.711 115.623 321.306C115.928 320.9 116.081 320.324 116.081 319.576C116.081 318.829 115.928 318.255 115.623 317.854C115.318 317.448 114.88 317.245 114.311 317.245C113.741 317.245 113.301 317.448 112.991 317.854C112.686 318.255 112.533 318.829 112.533 319.576C112.533 320.324 112.686 320.9 112.991 321.306C113.301 321.711 113.741 321.914 114.311 321.914ZM118.125 319.576C118.125 320.67 117.811 321.606 117.182 322.386C116.553 323.16 115.598 323.548 114.317 323.548C113.037 323.548 112.082 323.16 111.453 322.386C110.824 321.606 110.51 320.67 110.51 319.576C110.51 318.501 110.824 317.569 111.453 316.78C112.082 315.992 113.037 315.598 114.317 315.598C115.598 315.598 116.553 315.992 117.182 316.78C117.811 317.569 118.125 318.501 118.125 319.576ZM123.573 315.659C123.61 315.659 123.639 315.661 123.662 315.666C123.689 315.666 123.746 315.668 123.833 315.673V317.669C123.71 317.655 123.601 317.646 123.505 317.642C123.409 317.637 123.332 317.635 123.272 317.635C122.489 317.635 121.962 317.89 121.693 318.4C121.543 318.688 121.468 319.13 121.468 319.727V323.288H119.506V315.837H121.365V317.136C121.666 316.639 121.928 316.299 122.151 316.117C122.516 315.812 122.99 315.659 123.573 315.659ZM124.216 317.293V315.905H125.255V313.827H127.183V315.905H128.393V317.293H127.183V321.23C127.183 321.536 127.221 321.727 127.299 321.805C127.376 321.878 127.613 321.914 128.01 321.914C128.069 321.914 128.131 321.914 128.194 321.914C128.263 321.91 128.329 321.905 128.393 321.9V323.356L127.47 323.391C126.549 323.423 125.92 323.263 125.583 322.912C125.364 322.689 125.255 322.345 125.255 321.88V317.293H124.216Z" fill="#0C0C0C"/>
<path d="M312.388 607.924V609.708H309.373V618H307.254V609.708H304.226V607.924H312.388ZM316.537 614.377C316.414 614.454 316.289 614.518 316.161 614.568C316.038 614.614 315.867 614.657 315.648 614.698L315.211 614.78C314.801 614.853 314.507 614.942 314.329 615.047C314.028 615.225 313.878 615.5 313.878 615.874C313.878 616.207 313.969 616.448 314.151 616.599C314.338 616.744 314.564 616.817 314.828 616.817C315.247 616.817 315.632 616.694 315.983 616.448C316.339 616.202 316.523 615.753 316.537 615.102V614.377ZM315.354 613.468C315.715 613.422 315.972 613.365 316.127 613.297C316.405 613.178 316.544 612.994 316.544 612.743C316.544 612.438 316.437 612.228 316.223 612.114C316.013 611.996 315.703 611.937 315.293 611.937C314.833 611.937 314.507 612.05 314.315 612.278C314.179 612.447 314.088 612.675 314.042 612.962H312.162C312.203 612.31 312.385 611.775 312.709 611.355C313.224 610.699 314.108 610.371 315.361 610.371C316.177 610.371 316.902 610.533 317.535 610.856C318.169 611.18 318.485 611.791 318.485 612.688V616.106C318.485 616.343 318.49 616.631 318.499 616.968C318.513 617.223 318.551 617.396 318.615 617.487C318.679 617.578 318.775 617.654 318.902 617.713V618H316.783C316.724 617.85 316.683 617.708 316.66 617.576C316.637 617.444 316.619 617.294 316.605 617.125C316.337 617.417 316.027 617.665 315.676 617.87C315.257 618.112 314.783 618.232 314.254 618.232C313.579 618.232 313.021 618.041 312.579 617.658C312.142 617.271 311.923 616.724 311.923 616.018C311.923 615.102 312.276 614.438 312.982 614.028C313.37 613.805 313.939 613.646 314.691 613.55L315.354 613.468ZM324.269 610.371C324.305 610.371 324.335 610.373 324.357 610.378C324.385 610.378 324.442 610.38 324.528 610.385V612.381C324.405 612.367 324.296 612.358 324.2 612.354C324.104 612.349 324.027 612.347 323.968 612.347C323.184 612.347 322.658 612.602 322.389 613.112C322.238 613.399 322.163 613.841 322.163 614.438V618H320.201V610.549H322.061V611.848C322.361 611.351 322.623 611.011 322.847 610.829C323.211 610.524 323.685 610.371 324.269 610.371ZM324.911 612.005V610.617H325.95V608.539H327.878V610.617H329.088V612.005H327.878V615.942C327.878 616.248 327.917 616.439 327.994 616.517C328.072 616.59 328.309 616.626 328.705 616.626C328.764 616.626 328.826 616.626 328.89 616.626C328.958 616.621 329.024 616.617 329.088 616.612V618.068L328.165 618.103C327.244 618.134 326.616 617.975 326.278 617.624C326.06 617.401 325.95 617.057 325.95 616.592V612.005H324.911ZM332.28 610.549V615.04C332.28 615.464 332.33 615.783 332.431 615.997C332.608 616.375 332.957 616.564 333.477 616.564C334.142 616.564 334.598 616.296 334.844 615.758C334.971 615.466 335.035 615.081 335.035 614.603V610.549H337.011V618H335.117V616.947C335.099 616.97 335.053 617.038 334.98 617.152C334.908 617.266 334.821 617.367 334.721 617.453C334.415 617.727 334.119 617.913 333.832 618.014C333.549 618.114 333.217 618.164 332.834 618.164C331.731 618.164 330.988 617.768 330.605 616.975C330.391 616.537 330.284 615.892 330.284 615.04V610.549H332.28Z" fill="#0C0C0C"/>
<path d="M317.002 72.9332C318.771 72.9332 320.379 71.4475 320.379 69.4666C320.379 67.4857 318.932 66 317.002 66C315.233 66 313.625 67.4857 313.625 69.4666C313.625 71.4475 315.233 72.9332 317.002 72.9332Z" stroke="#0C0C0C" stroke-width="2"/>
<path d="M317 72.9331V91.999" stroke="#0C0C0C" stroke-width="2"/>
<path d="M306.867 85.4136C306.867 85.4136 309.231 92.0002 316.998 92.0002C324.765 92.0002 327.129 85.4136 327.129 85.4136" stroke="#0C0C0C" stroke-width="2"/>
<path d="M305.477 82.4663L310.754 84.0663L304 87.6662L305.477 82.4663Z" stroke="#0C0C0C" stroke-width="2"/>
<path d="M176.296 461.209C177.547 461.209 178.797 461.347 179.978 461.554C178.033 460.898 175.949 460.518 173.761 460.518C168.448 460.518 163.62 462.659 160.147 466.113C156.674 469.567 154.521 474.368 154.521 479.652C154.521 481.932 154.938 484.108 155.667 486.145C155.389 484.833 155.25 483.486 155.25 482.104C155.25 470.569 164.662 461.209 176.296 461.209ZM187.375 493.191C190.848 489.737 193.001 484.937 193.001 479.652C193.001 477.373 192.585 475.197 191.855 473.159C191.057 471.812 190.119 470.534 189.007 469.429C185.743 466.217 181.263 464.214 176.296 464.214C171.33 464.214 166.815 466.217 163.585 469.463C160.286 472.676 158.306 477.165 158.306 482.104C158.306 487.043 160.321 491.533 163.585 494.745C164.801 495.954 166.155 496.956 167.649 497.785C169.594 498.441 171.643 498.786 173.761 498.786C179.075 498.821 183.902 496.68 187.375 493.191ZM189.007 494.745C192.272 491.499 194.286 487.043 194.286 482.104C194.286 479.929 193.87 477.856 193.175 475.922C193.418 477.131 193.557 478.374 193.557 479.652C193.557 490.497 184.701 499.304 173.796 499.304C172.65 499.304 171.538 499.201 170.427 498.994C172.268 499.615 174.247 499.995 176.331 499.995C181.263 499.995 185.743 497.992 189.007 494.745ZM197.308 482.104C197.308 493.64 187.896 503 176.296 503C167.267 503 159.557 497.301 156.605 489.357C154.938 486.491 154 483.175 154 479.652C154 468.807 162.856 460 173.761 460C177.165 460 180.395 460.863 183.173 462.383C191.404 465.215 197.308 472.952 197.308 482.104Z" fill="#EE1D4C"/>
<path d="M223.457 479.41V478.996V478.581V478.305V478.029C223.457 477.718 223.457 477.442 223.457 477.165C223.422 476.889 223.387 476.578 223.283 476.267C223.109 475.784 222.832 475.335 222.484 474.955C222.137 474.575 221.685 474.299 221.199 474.091C220.783 473.919 220.331 473.815 219.914 473.781C219.463 473.746 219.046 473.711 218.629 473.711H216.684H216.025C215.816 473.711 215.608 473.746 215.434 473.815C215.261 473.884 215.122 473.988 215.017 474.16C214.913 474.333 214.878 474.575 214.878 474.886V475.335L214.913 475.784V476.198V476.613V476.923L214.878 477.234L214.844 477.58V477.96V488.666C214.844 488.908 214.913 489.15 215.017 489.323C215.122 489.53 215.365 489.634 215.677 489.634C215.92 489.634 216.094 489.564 216.198 489.461C216.337 489.357 216.407 489.185 216.441 489.012C216.476 488.839 216.511 488.632 216.511 488.425C216.511 488.217 216.511 488.045 216.511 487.838V487.561V487.147V486.732C216.476 486.456 216.476 486.18 216.476 485.903C216.476 485.627 216.476 485.351 216.546 485.109V485.005V484.867H217.657C217.9 484.867 218.178 484.867 218.421 484.867C218.664 484.867 218.942 484.867 219.185 484.867L219.498 485.074L219.671 485.523C219.741 485.731 219.81 485.903 219.88 486.042L219.845 486.007L220.192 486.663V486.629C220.262 486.87 220.331 487.078 220.435 487.25C220.505 487.423 220.609 487.596 220.678 487.768C220.783 487.941 220.852 488.114 220.921 488.252L221.095 488.597C221.165 488.805 221.269 488.977 221.373 489.185C221.477 489.392 221.651 489.53 221.894 489.599L221.859 489.564L222.033 489.634H222.172C222.415 489.634 222.588 489.564 222.693 489.426C222.797 489.288 222.866 489.115 222.866 488.908C222.866 488.632 222.797 488.321 222.658 488.045C222.519 487.768 222.38 487.492 222.241 487.25C222.068 487.009 221.998 486.87 221.963 486.801L221.929 486.732L221.859 486.629L221.755 486.456L221.72 486.387L221.685 486.318C221.616 486.145 221.547 486.007 221.477 485.834L221.303 485.454L221.165 485.178L221.06 484.936L220.956 484.66L221.234 484.591C221.338 484.591 221.477 484.522 221.651 484.418L221.616 484.453C222.033 484.246 222.345 484.004 222.623 483.727C222.866 483.451 223.075 483.106 223.179 482.726C223.318 482.346 223.387 482.001 223.422 481.586C223.457 481.206 223.491 480.792 223.491 480.412V479.928C223.491 479.721 223.457 479.548 223.457 479.41ZM221.859 480.55C221.859 481.586 221.616 482.277 221.13 482.691C220.644 483.071 219.914 483.279 218.942 483.279H218.282C218.039 483.244 217.796 483.244 217.553 483.279C217.31 483.279 217.032 483.279 216.789 483.279H216.441C216.476 483.037 216.511 482.83 216.511 482.726V482.173C216.511 481.897 216.511 481.621 216.511 481.31C216.511 481.034 216.511 480.723 216.511 480.446C216.511 480.17 216.476 479.894 216.476 479.617V478.754V477.407C216.476 477.165 216.476 476.958 216.476 476.716C216.476 476.474 216.476 476.233 216.476 475.991V475.715V475.438V475.369V475.3H216.928H217.24H217.553L217.865 475.335H218.213H218.56L218.907 475.3L219.254 475.266H219.567C220.227 475.266 220.748 475.473 221.234 475.887C221.685 476.302 221.929 476.82 221.929 477.476C221.929 477.752 221.929 477.994 221.929 478.27C221.929 478.547 221.929 478.789 221.929 479.03V480.55H221.859Z" fill="#0C0C0C"/>
<path d="M231.76 475.577C231.795 475.404 231.795 475.266 231.795 475.093V474.644L231.726 474.368L231.587 474.092L231.309 473.815L230.892 473.677C230.684 473.677 230.51 473.746 230.406 473.85C230.302 473.954 230.232 474.092 230.163 474.264C230.128 474.437 230.093 474.61 230.093 474.782V475.266V475.404V475.715V476.06L230.128 476.371V476.648C230.128 476.889 230.128 477.235 230.128 477.615C230.128 478.029 230.128 478.34 230.128 478.582C230.093 478.893 230.093 479.238 230.093 479.549V480.516V481.69C230.093 482.105 230.093 482.519 230.128 482.864C230.128 483.244 230.128 483.659 230.128 484.039C230.128 484.419 230.128 484.833 230.128 485.213C230.128 485.489 230.128 485.766 230.128 486.042C230.128 486.318 230.093 486.56 230.093 486.836C230.093 487.113 230.059 487.389 230.059 487.665V488.494C230.059 488.736 230.128 489.012 230.232 489.254C230.371 489.53 230.614 489.668 230.962 489.668L231.344 489.53L231.587 489.185L231.691 488.77L231.726 488.425V479.514C231.726 479.272 231.726 479.031 231.726 478.789C231.726 478.547 231.726 478.305 231.726 478.064C231.691 477.822 231.691 477.546 231.691 477.304V476.544V476.095C231.726 475.888 231.76 475.75 231.76 475.577Z" fill="#0C0C0C"/>
<path d="M247.492 487.872C247.492 487.596 247.492 487.354 247.492 487.216C247.492 486.353 247.492 485.489 247.492 484.66C247.492 483.831 247.492 483.003 247.492 482.174V474.575C247.492 474.368 247.458 474.195 247.423 473.988C247.353 473.781 247.18 473.677 246.832 473.677C246.52 473.677 246.277 473.781 246.103 473.988C245.93 474.195 245.825 474.437 245.825 474.748V475.093L245.86 475.404L245.895 475.715V475.991C245.895 476.233 245.895 476.509 245.895 476.855C245.895 477.2 245.895 477.476 245.895 477.718C245.895 478.029 245.86 478.305 245.86 478.582V479.445V480.205C245.86 480.481 245.86 480.723 245.895 480.965C245.93 481.207 245.93 481.448 245.93 481.69C245.93 481.932 245.93 482.174 245.93 482.415C245.93 482.692 245.93 483.037 245.93 483.486C245.93 483.935 245.93 484.315 245.93 484.557L245.895 485.006V485.455C245.791 485.248 245.686 485.006 245.547 484.764C245.409 484.522 245.27 484.211 245.131 483.935L245.061 483.831L244.957 483.659L244.818 483.417L244.714 483.175L244.401 482.484V482.519L244.332 482.312L244.262 482.208L244.297 482.277C244.054 481.828 243.811 481.345 243.603 480.861C243.394 480.378 243.151 479.929 242.908 479.445C242.665 478.893 242.387 478.305 242.075 477.718C241.797 477.131 241.484 476.544 241.172 475.991L240.512 474.748V474.817C240.442 474.61 240.303 474.368 240.13 474.126C239.956 473.884 239.713 473.746 239.366 473.746C239.192 473.746 239.088 473.781 238.984 473.884L238.74 474.195L238.636 474.575L238.602 474.921V483.003C238.602 483.521 238.602 484.039 238.602 484.557C238.602 485.075 238.602 485.593 238.602 486.111V488.909L238.636 489.185L238.775 489.53L239.018 489.807L239.331 489.945C239.574 489.945 239.748 489.841 239.887 489.634C240.025 489.427 240.13 489.15 240.164 488.874C240.234 488.563 240.234 488.252 240.234 487.907V486.94V486.629C240.234 486.422 240.234 486.215 240.234 486.007C240.234 485.8 240.199 485.593 240.199 485.351C240.164 485.144 240.164 484.971 240.164 484.764V484.142V482.277C240.164 481.656 240.164 481.034 240.199 480.412C240.199 479.998 240.199 479.549 240.199 479.134C240.199 478.72 240.234 478.271 240.234 477.856L240.338 478.064V478.029L240.512 478.444C240.79 479.031 241.067 479.618 241.38 480.274C241.692 480.896 242.005 481.517 242.387 482.139C242.526 482.381 242.665 482.657 242.804 482.933C242.943 483.21 243.082 483.486 243.221 483.762C243.464 484.315 243.707 484.799 243.95 485.248L244.506 486.353H244.54L244.888 487.009C245.027 487.285 245.165 487.562 245.304 487.838C245.443 488.114 245.513 488.252 245.513 488.287C245.582 488.356 245.652 488.46 245.756 488.632C245.86 488.805 245.999 488.978 246.138 489.15C246.277 489.323 246.416 489.461 246.589 489.599L247.006 489.807C247.145 489.807 247.249 489.703 247.353 489.496C247.423 489.288 247.492 489.047 247.527 488.736C247.458 488.46 247.492 488.183 247.492 487.872Z" fill="#0C0C0C"/>
<path d="M264.577 483.071V482.795C264.577 482.484 264.508 482.208 264.404 481.897C264.265 481.586 263.987 481.448 263.57 481.448H261.382H261.139H260.931L260.653 481.483H260.479H260.062L259.646 481.552L259.298 481.759C259.194 481.863 259.16 482.001 259.16 482.173C259.16 482.45 259.264 482.691 259.437 482.864C259.611 483.037 259.854 483.14 260.167 483.14H260.306L260.445 483.106C260.583 483.106 260.722 483.106 260.931 483.106C261.139 483.106 261.347 483.071 261.556 483.071C261.764 483.071 262.007 483.071 262.216 483.071H262.806L262.771 483.417L262.806 483.866C262.806 484.073 262.806 484.349 262.771 484.626C262.737 484.902 262.737 485.213 262.667 485.524C262.632 485.834 262.563 486.111 262.459 486.387C262.355 486.663 262.25 486.905 262.112 487.078C261.695 487.492 261.209 487.734 260.618 487.838C260.028 487.941 259.437 487.976 258.847 487.976C258.152 487.976 257.597 487.872 257.18 487.665C256.763 487.458 256.451 487.181 256.242 486.836C256.034 486.491 255.895 486.042 255.825 485.558C255.756 485.075 255.721 484.522 255.721 483.935V483.417C255.721 483.244 255.721 483.071 255.756 482.864C255.756 482.657 255.756 482.484 255.756 482.312C255.756 482.139 255.756 481.932 255.756 481.759V480.308C255.756 480.067 255.756 479.825 255.756 479.548C255.756 479.307 255.756 479.065 255.756 478.789V478.409C255.756 478.132 255.756 477.891 255.756 477.649C255.756 477.407 255.791 477.165 255.86 476.958C255.93 476.751 256.034 476.544 256.138 476.336C256.242 476.164 256.451 475.957 256.659 475.784L256.694 475.749C256.694 475.749 256.694 475.749 256.659 475.784C257.006 475.542 257.388 475.369 257.805 475.266C258.222 475.162 258.639 475.128 259.055 475.128C259.403 475.128 259.785 475.162 260.132 475.197C260.479 475.231 260.827 475.335 261.139 475.473C261.452 475.611 261.729 475.784 261.973 475.991C262.216 476.198 262.424 476.509 262.563 476.82V476.889V477.062C262.563 477.338 262.632 477.614 262.702 477.891C262.771 478.167 263.014 478.305 263.397 478.305C263.605 478.305 263.813 478.201 263.987 477.96C264.161 477.718 264.23 477.511 264.23 477.303C264.23 477.062 264.161 476.82 264.056 476.544V476.578L264.022 476.405C263.917 476.026 263.779 475.715 263.57 475.404C263.362 475.093 263.084 474.851 262.806 474.61C262.528 474.368 262.181 474.195 261.834 474.057C261.486 473.919 261.139 473.815 260.792 473.746H260.827C260.549 473.642 260.236 473.608 259.924 473.608C259.611 473.608 259.264 473.608 258.951 473.608C258.361 473.608 257.805 473.677 257.215 473.815C256.624 473.953 256.103 474.195 255.652 474.54C255.061 474.989 254.679 475.611 254.402 476.302C254.158 477.027 254.02 477.752 254.02 478.478V478.72L254.054 478.961V479.134V479.307V484.66C254.054 485.005 254.089 485.385 254.124 485.731C254.158 486.111 254.228 486.456 254.332 486.801C254.436 487.147 254.575 487.492 254.749 487.803C254.923 488.114 255.166 488.39 255.443 488.632C255.964 489.046 256.52 489.323 257.145 489.426C257.77 489.565 258.361 489.599 258.986 489.599C259.264 489.599 259.646 489.599 260.097 489.565C260.549 489.53 260.896 489.495 261.209 489.392L261.382 489.323L261.556 489.219L261.73 489.15C262.494 488.805 263.049 488.356 263.466 487.872C263.883 487.389 264.161 486.698 264.334 485.834C264.369 485.627 264.404 485.385 264.404 485.144C264.404 484.902 264.404 484.66 264.404 484.418V483.728V483.555L264.438 483.348L264.577 483.071Z" fill="#0C0C0C"/>
<path d="M272.602 484.315V482.622C272.602 482.001 272.602 481.448 272.637 480.93C272.671 480.343 272.671 479.79 272.671 479.238C272.671 478.685 272.671 478.098 272.671 477.545C272.671 477.373 272.671 477.2 272.671 477.027C272.671 476.855 272.637 476.647 272.637 476.475C272.637 476.302 272.602 476.129 272.602 475.957V475.404V475.162L272.671 474.713C272.671 474.471 272.567 474.23 272.394 474.057C272.22 473.85 271.977 473.746 271.734 473.746C271.56 473.746 271.421 473.85 271.317 474.022C271.213 474.195 271.143 474.402 271.109 474.679C271.074 474.92 271.039 475.197 271.039 475.438V476.129V485.213C271.039 485.662 271.039 486.145 271.039 486.594C271.039 487.043 271.039 487.527 271.039 487.976V488.494C271.039 488.701 271.039 488.874 271.109 489.047C271.143 489.219 271.213 489.392 271.317 489.496C271.421 489.634 271.56 489.703 271.768 489.703C272.081 489.703 272.324 489.565 272.498 489.288C272.637 489.012 272.741 488.736 272.741 488.494V488.183L272.706 487.872L272.671 487.596V487.285V484.315H272.602Z" fill="#0C0C0C"/>
<path d="M298.893 488.874V488.597L298.824 488.183L298.685 487.769L298.581 487.458C298.476 487.181 298.372 486.871 298.233 486.491C298.094 486.111 297.99 485.696 297.851 485.282C297.712 484.867 297.608 484.453 297.504 484.038C297.4 483.624 297.296 483.244 297.191 482.899C297.052 482.381 296.879 481.793 296.705 481.137C296.532 480.481 296.323 479.859 296.115 479.238C295.941 478.789 295.802 478.305 295.698 477.822C295.559 477.338 295.455 476.854 295.281 476.371L294.865 474.92L294.726 474.506L294.483 474.091L294.135 473.746C293.996 473.642 293.857 473.608 293.649 473.608C293.475 473.608 293.302 473.642 293.198 473.746L292.885 474.091L292.677 474.506L292.572 474.92C292.468 475.473 292.329 476.06 292.156 476.716C291.982 477.373 291.808 477.925 291.635 478.443C291.531 478.685 291.461 478.927 291.392 479.169C291.322 479.41 291.218 479.618 291.149 479.859C290.905 480.654 290.662 481.448 290.454 482.208C290.246 482.968 290.002 483.762 289.759 484.557L289.794 484.522L289.482 485.593C289.412 485.8 289.343 486.007 289.273 486.249C289.204 486.491 289.134 486.698 289.099 486.905C289.03 487.147 288.961 487.354 288.926 487.596C288.891 487.803 288.822 488.045 288.717 488.287L288.752 488.218C288.648 488.356 288.613 488.528 288.613 488.736C288.613 488.977 288.683 489.185 288.856 489.323C289.03 489.461 289.238 489.565 289.482 489.565C289.725 489.565 289.933 489.495 290.072 489.323C290.211 489.15 290.28 488.977 290.315 488.805C290.419 488.425 290.489 488.045 290.593 487.699C290.697 487.32 290.801 486.974 290.94 486.594L291.287 485.489L291.704 483.866C291.808 483.659 291.878 483.486 291.913 483.313L292.017 482.864L292.121 482.45L292.225 482.035L292.885 479.825C293.024 479.307 293.163 478.789 293.302 478.305C293.441 477.822 293.58 477.338 293.753 476.82V476.924H293.788L293.962 477.442C294.1 477.925 294.239 478.409 294.378 478.892C294.517 479.376 294.691 479.859 294.83 480.308C294.934 480.654 295.038 480.965 295.142 481.31C295.247 481.621 295.316 481.966 295.42 482.312V482.381L295.49 482.553C295.524 482.622 295.559 482.726 295.629 482.899V482.795C295.698 482.968 295.733 483.14 295.802 483.313C295.872 483.486 295.906 483.624 295.941 483.797L296.358 485.42C296.393 485.662 296.462 485.903 296.566 486.214C296.67 486.525 296.775 486.801 296.914 487.112C297.018 487.32 297.087 487.492 297.157 487.699C297.226 487.907 297.296 488.148 297.365 488.425L297.504 488.77L297.747 489.15L298.06 489.461L298.442 489.599L298.789 489.495L298.963 489.254L298.893 488.874Z" fill="#0C0C0C"/>
<path d="M313.55 479.41V478.996V478.581V478.305V478.029C313.55 477.718 313.55 477.442 313.55 477.165C313.55 476.889 313.48 476.578 313.376 476.267C313.203 475.784 312.925 475.335 312.578 474.955C312.23 474.575 311.813 474.299 311.293 474.091C310.876 473.919 310.424 473.815 309.973 473.781C309.521 473.746 309.105 473.711 308.688 473.711H306.743H306.083C305.875 473.711 305.666 473.746 305.493 473.815C305.319 473.884 305.18 473.988 305.076 474.16C304.972 474.333 304.937 474.575 304.937 474.886V475.335L304.972 475.784V476.198V476.613V476.923L304.937 477.234L304.902 477.58V477.96V488.666C304.902 488.908 304.972 489.15 305.076 489.323C305.18 489.53 305.423 489.634 305.736 489.634C305.979 489.634 306.153 489.564 306.257 489.461C306.396 489.357 306.465 489.185 306.5 489.012C306.535 488.839 306.569 488.632 306.569 488.425C306.569 488.217 306.569 488.045 306.569 487.838V487.561V487.147V486.732C306.535 486.456 306.535 486.18 306.535 485.903C306.535 485.627 306.535 485.351 306.604 485.109V485.005V484.867H307.715C307.959 484.867 308.236 484.867 308.479 484.867C308.723 484.867 309 484.867 309.243 484.867L309.556 485.074L309.73 485.523C309.799 485.731 309.869 485.903 309.938 486.042L309.903 486.007L310.251 486.663V486.629C310.32 486.87 310.39 487.078 310.494 487.25C310.563 487.423 310.667 487.596 310.737 487.768C310.841 487.941 310.911 488.114 310.98 488.252L311.154 488.597C311.223 488.805 311.327 488.977 311.431 489.185C311.536 489.392 311.709 489.53 311.952 489.599L311.918 489.564L312.091 489.634H312.23C312.473 489.634 312.647 489.564 312.751 489.426C312.855 489.288 312.925 489.115 312.925 488.908C312.925 488.632 312.855 488.321 312.716 488.045C312.578 487.768 312.439 487.492 312.3 487.25C312.126 487.009 312.057 486.87 312.022 486.801L311.987 486.732L311.918 486.629L311.813 486.456L311.779 486.387L311.744 486.318C311.675 486.145 311.605 486.007 311.536 485.834L311.362 485.454L311.223 485.178L311.084 484.936L310.98 484.66L311.327 484.522C311.431 484.522 311.57 484.453 311.744 484.349L311.709 484.384C312.126 484.176 312.439 483.935 312.716 483.658C312.96 483.382 313.168 483.037 313.272 482.657C313.411 482.277 313.48 481.932 313.515 481.517C313.55 481.137 313.585 480.723 313.585 480.343V479.859C313.585 479.721 313.55 479.548 313.55 479.41ZM311.952 480.55C311.952 481.586 311.709 482.277 311.223 482.691C310.737 483.071 310.008 483.279 309.035 483.279H308.375C308.132 483.244 307.889 483.244 307.646 483.279C307.403 483.279 307.125 483.279 306.882 483.279H306.535C306.569 483.037 306.604 482.83 306.604 482.726V482.173C306.604 481.897 306.604 481.621 306.604 481.31C306.604 481.034 306.604 480.723 306.604 480.446C306.604 480.17 306.569 479.894 306.569 479.617V478.754V477.407C306.569 477.165 306.569 476.958 306.569 476.716C306.569 476.474 306.569 476.233 306.569 475.991V475.715V475.438V475.369V475.3H307.021H307.333H307.646L307.959 475.335H308.306H308.653L309 475.3L309.348 475.266H309.66C310.32 475.266 310.841 475.473 311.293 475.887C311.744 476.302 311.987 476.82 311.987 477.476C311.987 477.752 311.987 477.994 311.987 478.27C311.987 478.547 311.987 478.789 311.987 479.03V480.55H311.952Z" fill="#0C0C0C"/>
<path d="M295.521 472.503L295.625 473.159C295.695 473.47 295.695 473.504 295.834 473.712C295.973 473.919 296.25 473.953 296.424 473.953C296.702 473.953 296.945 473.815 297.119 473.401C297.292 472.986 297.188 473.021 297.188 472.434C297.188 471.881 297.223 472.019 297.049 471.57C296.876 471.121 296.632 471.052 296.389 471.052C296.146 471.052 295.66 471.19 295.556 471.605C295.417 472.019 295.486 471.95 295.521 472.503Z" fill="#0C0C0C"/>
<path d="M291.632 472.503L291.527 473.159C291.458 473.47 291.458 473.504 291.319 473.712C291.18 473.919 290.902 473.953 290.729 473.953C290.451 473.953 290.208 473.815 290.034 473.401C289.86 472.986 289.965 473.021 289.965 472.434C289.965 471.881 289.93 472.019 290.104 471.57C290.277 471.121 290.52 471.052 290.763 471.052C291.006 471.052 291.493 471.19 291.597 471.605C291.736 472.019 291.632 471.95 291.632 472.503Z" fill="#0C0C0C"/>
</g>
</g>
<defs>
<clipPath id="clip0">
<rect width="320" height="670" fill="white"/>
</clipPath>
<clipPath id="clip1">
<rect x="-615" y="-19" width="1366" height="700" fill="white"/>
</clipPath>
</defs>
</svg>
