<svg width="320" height="670" viewBox="0 0 320 670" fill="none" xmlns="http://www.w3.org/2000/svg">
<g clip-path="url(#clip0)">
<path d="M-152.871 143.866C-152.871 143.866 -93.7756 178.4 -51.5852 167.852C-10.8397 157.593 28.172 150.079 49.1227 143.866C70.0734 137.652 112.119 132.017 164.279 55.5781C189.709 18.2979 203.58 -4.24365 203.58 -4.24365" stroke="#90B5CF" stroke-width="1.91429"/>
<path d="M-141.09 151.229C-141.09 151.229 -98.497 171.807 -37.7184 169.414C-0.389848 167.945 25.1277 184.18 46.0784 182.012C67.0291 179.7 96.7936 163.372 96.7936 163.372" stroke="#90B5CF" stroke-width="4.78571"/>
<path d="M-34.9648 538.916C-34.9648 538.916 8.52595 536.315 87.8497 594.258C149.112 638.907 215.288 686.88 215.288 686.88" stroke="#90B5CF" stroke-width="4.78571"/>
<path d="M124.264 431.993C124.264 431.993 115.016 455.546 126.864 486.757C138.568 517.968 228.295 679.805 228.295 679.805" stroke="#90B5CF" stroke-width="4.78571"/>
<path d="M347.943 -4.24365L281.623 50.2317C281.623 50.2317 212.558 95.0257 201.288 188.66C191.463 270.301 174.413 395.146 174.413 395.146C174.413 395.146 165.744 508.142 215.592 588.483C238.71 625.618 252.292 616.371 265.152 606.111C278.011 595.852 351.266 536.319 351.266 536.319" stroke="#90B5CF" stroke-width="1.91429"/>
<path d="M352.834 520.859L308.621 465.516L286.948 440.519L248.803 411.475L222.65 391.679C222.65 391.679 203.867 376.651 177.57 374.628" stroke="#90B5CF" stroke-width="1.91429"/>
<path d="M207.477 158.315L314.397 222.183C314.397 222.183 384.33 266.255 456.14 241.401C479.836 233.165 490.095 229.119 490.095 229.119L519.137 227.529" stroke="#90B5CF" stroke-width="1.91429"/>
<path d="M-40.5894 539.788C58.7596 539.788 139.298 459.244 139.298 359.889C139.298 260.534 58.7596 179.99 -40.5894 179.99C-139.938 179.99 -220.477 260.534 -220.477 359.889C-220.477 459.244 -139.938 539.788 -40.5894 539.788Z" stroke="#90B5CF" stroke-width="7.65714"/>
<path d="M207.927 676.048L-344.16 -4.24365" stroke="#90B5CF" stroke-width="7.65714"/>
<path d="M224.404 676.048L-327.684 -4.24365" stroke="#90B5CF" stroke-width="7.65714"/>
<path d="M126.422 293.131C126.422 293.131 92.7565 201.809 161.244 123.203C216.149 60.0575 275.534 -4.24365 275.534 -4.24365" stroke="#90B5CF" stroke-width="7.65714"/>
<path d="M23.9922 192.272C23.9922 192.272 66.1826 202.531 136.404 128.838C185.096 77.6861 256.762 -4.24365 256.762 -4.24365" stroke="#90B5CF" stroke-width="7.65714"/>
<path opacity="0.6" d="M182.634 383.298L198.961 385.321L284.498 444.71L315.274 483.579L211.387 560.307C211.243 560.452 170.786 489.359 182.634 383.298Z" fill="#EE1D4C"/>
<path opacity="0.6" d="M185.512 368.272L205.596 374.485L241.428 331.425L286.364 218.284L294.166 193.286L215.854 148.203L198.949 257.731L185.512 368.272Z" fill="#EE1D4C"/>
<path d="M275.449 627.114L263.496 637.145L285.972 663.931L297.926 653.899L275.449 627.114Z" fill="#ADCFE7"/>
<path d="M312.985 595.429L275.465 626.916L288.468 642.412L325.987 610.925L312.985 595.429Z" fill="#ADCFE7"/>
<path d="M-49.421 249.425V251.133H-52.3064V259.069H-54.3348V251.133H-57.2333V249.425H-49.421ZM-45.4494 255.602C-45.5672 255.676 -45.6871 255.737 -45.8093 255.785C-45.927 255.828 -46.0906 255.87 -46.3 255.909L-46.7187 255.988C-47.1113 256.057 -47.3927 256.142 -47.5628 256.243C-47.8507 256.413 -47.9946 256.677 -47.9946 257.034C-47.9946 257.353 -47.9074 257.584 -47.7329 257.728C-47.5541 257.868 -47.3381 257.937 -47.0852 257.937C-46.6839 257.937 -46.3153 257.82 -45.9794 257.584C-45.6392 257.349 -45.4625 256.919 -45.4494 256.295V255.602ZM-46.5813 254.731C-46.2367 254.688 -45.9903 254.633 -45.842 254.568C-45.5759 254.454 -45.4429 254.278 -45.4429 254.038C-45.4429 253.746 -45.5454 253.545 -45.7504 253.436C-45.951 253.322 -46.2477 253.266 -46.6402 253.266C-47.0808 253.266 -47.3927 253.375 -47.5759 253.593C-47.7067 253.754 -47.794 253.972 -47.8376 254.247H-49.6369C-49.5977 253.623 -49.4232 253.111 -49.1135 252.71C-48.6206 252.081 -47.7743 251.767 -46.5748 251.767C-45.794 251.767 -45.1005 251.922 -44.4941 252.232C-43.8878 252.542 -43.5847 253.126 -43.5847 253.985V257.257C-43.5847 257.484 -43.5803 257.759 -43.5716 258.081C-43.5585 258.326 -43.5214 258.491 -43.4603 258.579C-43.3993 258.666 -43.3077 258.738 -43.1855 258.795V259.069H-45.2139C-45.2706 258.925 -45.3098 258.79 -45.3316 258.664C-45.3534 258.537 -45.3709 258.393 -45.384 258.232C-45.6413 258.511 -45.938 258.749 -46.2738 258.945C-46.6751 259.176 -47.1288 259.292 -47.6348 259.292C-48.2803 259.292 -48.8147 259.109 -49.2378 258.742C-49.6565 258.371 -49.8659 257.848 -49.8659 257.172C-49.8659 256.295 -49.5279 255.66 -48.8518 255.268C-48.481 255.054 -47.9357 254.901 -47.216 254.81L-46.5813 254.731ZM-40.0187 259.069H-41.8835V249.425H-40.0187V259.069ZM-36.2893 259.069H-38.154V249.425H-36.2893V259.069ZM-32.5467 251.087H-34.4376V249.366H-32.5467V251.087ZM-34.4376 251.937H-32.5467V259.069H-34.4376V251.937ZM-26.7823 251.767C-26.0451 251.767 -25.4432 251.961 -24.9765 252.35C-24.5054 252.734 -24.2698 253.373 -24.2698 254.267V259.069H-26.1804V254.731C-26.1804 254.356 -26.2305 254.068 -26.3309 253.868C-26.5141 253.501 -26.863 253.318 -27.3777 253.318C-28.0102 253.318 -28.4442 253.586 -28.6798 254.123C-28.8019 254.406 -28.863 254.768 -28.863 255.209V259.069H-30.7212V251.951H-28.9219V252.991C-28.682 252.625 -28.4551 252.361 -28.2414 252.199C-27.8575 251.911 -27.3712 251.767 -26.7823 251.767ZM-18.5905 251.767C-17.8533 251.767 -17.2514 251.961 -16.7847 252.35C-16.3136 252.734 -16.078 253.373 -16.078 254.267V259.069H-17.9886V254.731C-17.9886 254.356 -18.0387 254.068 -18.1391 253.868C-18.3223 253.501 -18.6712 253.318 -19.1859 253.318C-19.8184 253.318 -20.2524 253.586 -20.488 254.123C-20.6101 254.406 -20.6712 254.768 -20.6712 255.209V259.069H-22.5294V251.951H-20.7301V252.991C-20.4902 252.625 -20.2633 252.361 -20.0496 252.199C-19.6657 251.911 -19.1794 251.767 -18.5905 251.767ZM-8.44237 249.458H-7.44784L-10.4969 259.069H-11.4914L-8.44237 249.458ZM-0.387979 253.626C0.131096 253.626 0.536761 253.482 0.829013 253.194C1.12127 252.901 1.26739 252.555 1.26739 252.153C1.26739 251.804 1.12781 251.484 0.848642 251.192C0.569475 250.899 0.144182 250.753 -0.427237 250.753C-0.994294 250.753 -1.40432 250.899 -1.65732 251.192C-1.91031 251.484 -2.03681 251.826 -2.03681 252.219C-2.03681 252.659 -1.87323 253.004 -1.54608 253.253C-1.21894 253.501 -0.832901 253.626 -0.387979 253.626ZM-0.316007 258.265C0.229241 258.265 0.680706 258.118 1.03839 257.826C1.40043 257.53 1.58145 257.089 1.58145 256.504C1.58145 255.898 1.39607 255.438 1.0253 255.124C0.654534 254.81 0.179078 254.653 -0.401065 254.653C-0.963761 254.653 -1.42395 254.814 -1.78163 255.137C-2.13495 255.455 -2.31161 255.898 -2.31161 256.465C-2.31161 256.954 -2.15022 257.377 -1.82743 257.735C-1.50028 258.088 -0.996475 258.265 -0.316007 258.265ZM-1.99101 254.077C-2.31816 253.937 -2.57333 253.774 -2.75653 253.586C-3.10113 253.237 -3.27343 252.784 -3.27343 252.225C-3.27343 251.527 -3.02043 250.928 -2.51444 250.426C-2.00845 249.924 -1.29091 249.674 -0.361807 249.674C0.536761 249.674 1.24122 249.911 1.75157 250.387C2.26192 250.858 2.5171 251.41 2.5171 252.042C2.5171 252.627 2.36879 253.1 2.07218 253.462C1.90642 253.667 1.64907 253.868 1.30011 254.064C1.68832 254.243 1.99366 254.448 2.21612 254.679C2.63051 255.115 2.8377 255.682 2.8377 256.38C2.8377 257.205 2.56072 257.905 2.00675 258.48C1.45278 259.052 0.669801 259.338 -0.342178 259.338C-1.25383 259.338 -2.0259 259.091 -2.65839 258.598C-3.28651 258.101 -3.60058 257.381 -3.60058 256.439C-3.60058 255.885 -3.46536 255.407 -3.19491 255.006C-2.92447 254.6 -2.52317 254.291 -1.99101 254.077ZM8.01974 252.062H9.18439V253.056C9.46355 252.712 9.71655 252.461 9.94337 252.304C10.3316 252.038 10.7721 251.905 11.2651 251.905C11.8234 251.905 12.2727 252.042 12.6129 252.317C12.8048 252.474 12.9793 252.705 13.1363 253.011C13.3981 252.635 13.7056 252.358 14.0589 252.18C14.4122 251.996 14.8092 251.905 15.2497 251.905C16.1919 251.905 16.8331 252.245 17.1734 252.925C17.3566 253.292 17.4482 253.785 17.4482 254.404V259.069H16.2246V254.201C16.2246 253.735 16.1068 253.414 15.8713 253.24C15.6401 253.065 15.3566 252.978 15.0207 252.978C14.5583 252.978 14.1592 253.133 13.8234 253.442C13.4918 253.752 13.3261 254.269 13.3261 254.993V259.069H12.1287V254.496C12.1287 254.02 12.072 253.674 11.9586 253.455C11.7798 253.128 11.4461 252.965 10.9575 252.965C10.5126 252.965 10.1069 253.137 9.74054 253.482C9.3785 253.826 9.19747 254.45 9.19747 255.353V259.069H8.01974V252.062ZM19.182 252.095H20.3794V259.069H19.182V252.095ZM19.182 249.458H20.3794V250.792H19.182V249.458ZM22.1656 252.062H23.2845V253.056C23.616 252.646 23.9671 252.352 24.3379 252.173C24.7087 251.994 25.1209 251.905 25.5745 251.905C26.5691 251.905 27.2408 252.252 27.5898 252.945C27.7817 253.325 27.8777 253.868 27.8777 254.574V259.069H26.6803V254.653C26.6803 254.225 26.617 253.881 26.4905 253.619C26.2812 253.183 25.9017 252.965 25.3521 252.965C25.0729 252.965 24.8439 252.993 24.6651 253.05C24.3423 253.146 24.0587 253.338 23.8145 253.626C23.6182 253.857 23.4895 254.097 23.4284 254.345C23.3717 254.59 23.3434 254.941 23.3434 255.399V259.069H22.1656V252.062ZM35.5395 249.458H36.534L33.485 259.069H32.4904L35.5395 249.458ZM41.7291 256.805C41.764 257.455 42.0148 257.905 42.4816 258.153C42.7215 258.284 42.9919 258.35 43.2929 258.35C43.8556 258.35 44.3354 258.116 44.7323 257.65C45.1293 257.178 45.4106 256.225 45.5764 254.79C45.3147 255.205 44.9897 255.497 44.6015 255.667C44.2176 255.833 43.8032 255.916 43.3583 255.916C42.4554 255.916 41.74 255.634 41.2122 255.072C40.6888 254.509 40.4271 253.785 40.4271 252.899C40.4271 252.049 40.6866 251.301 41.2057 250.655C41.7248 250.01 42.4903 249.687 43.5023 249.687C44.8676 249.687 45.8098 250.302 46.3288 251.532C46.6167 252.208 46.7607 253.054 46.7607 254.071C46.7607 255.218 46.5884 256.234 46.2438 257.12C45.6724 258.594 44.704 259.331 43.3387 259.331C42.4227 259.331 41.7269 259.091 41.2515 258.611C40.776 258.132 40.5383 257.53 40.5383 256.805H41.7291ZM43.5154 254.882C43.9821 254.882 44.4074 254.729 44.7912 254.424C45.1794 254.114 45.3736 253.575 45.3736 252.808C45.3736 252.119 45.1991 251.606 44.8501 251.27C44.5055 250.93 44.065 250.76 43.5284 250.76C42.9527 250.76 42.4946 250.954 42.1544 251.342C41.8185 251.726 41.6506 252.241 41.6506 252.886C41.6506 253.497 41.7989 253.983 42.0955 254.345C42.3921 254.703 42.8654 254.882 43.5154 254.882ZM51.9754 249.458H53.1073V255.039L56.1302 252.062H57.6351L54.9525 254.686L57.7856 259.069H56.2807L54.0953 255.536L53.1073 256.439V259.069H51.9754V249.458ZM58.7016 252.062H59.8662V253.056C60.1454 252.712 60.3984 252.461 60.6252 252.304C61.0134 252.038 61.454 251.905 61.9469 251.905C62.5052 251.905 62.9545 252.042 63.2948 252.317C63.4867 252.474 63.6612 252.705 63.8182 253.011C64.0799 252.635 64.3874 252.358 64.7407 252.18C65.0941 251.996 65.491 251.905 65.9316 251.905C66.8738 251.905 67.515 252.245 67.8552 252.925C68.0384 253.292 68.13 253.785 68.13 254.404V259.069H66.9065V254.201C66.9065 253.735 66.7887 253.414 66.5531 253.24C66.322 253.065 66.0384 252.978 65.7026 252.978C65.2402 252.978 64.8411 253.133 64.5052 253.442C64.1737 253.752 64.0079 254.269 64.0079 254.993V259.069H62.8106V254.496C62.8106 254.02 62.7539 253.674 62.6405 253.455C62.4616 253.128 62.1279 252.965 61.6394 252.965C61.1945 252.965 60.7888 253.137 60.4224 253.482C60.0603 253.826 59.8793 254.45 59.8793 255.353V259.069H58.7016V252.062Z" fill="#0C0C0C"/>
<path d="M245.633 40.7673H247.746L251.587 47.5V40.7673H253.464V50.4116H251.449L247.51 43.5611V50.4116H245.633V40.7673ZM259.131 46.9438C259.013 47.018 258.893 47.0791 258.771 47.1271C258.653 47.1707 258.489 47.2121 258.28 47.2514L257.861 47.3299C257.469 47.3997 257.187 47.4847 257.017 47.5851C256.729 47.7552 256.585 48.0191 256.585 48.3768C256.585 48.6952 256.673 48.9264 256.847 49.0703C257.026 49.2099 257.242 49.2797 257.495 49.2797C257.896 49.2797 258.265 49.1619 258.601 48.9264C258.941 48.6908 259.118 48.2612 259.131 47.6374V46.9438ZM257.999 46.0736C258.343 46.03 258.59 45.9755 258.738 45.9101C259.004 45.7966 259.137 45.62 259.137 45.3801C259.137 45.0878 259.035 44.8872 258.83 44.7781C258.629 44.6647 258.332 44.608 257.94 44.608C257.499 44.608 257.187 44.7171 257.004 44.9352C256.873 45.0965 256.786 45.3146 256.742 45.5895H254.943C254.982 44.9657 255.157 44.4532 255.467 44.0519C255.96 43.4237 256.806 43.1097 258.005 43.1097C258.786 43.1097 259.48 43.2645 260.086 43.5742C260.692 43.8839 260.995 44.4684 260.995 45.3277V48.5992C260.995 48.826 261 49.1008 261.008 49.4236C261.022 49.6679 261.059 49.8337 261.12 49.9209C261.181 50.0081 261.272 50.0801 261.395 50.1368V50.4116H259.366C259.31 50.2677 259.27 50.1325 259.248 50.006C259.227 49.8795 259.209 49.7355 259.196 49.5741C258.939 49.8533 258.642 50.091 258.306 50.2873C257.905 50.5185 257.451 50.6341 256.945 50.6341C256.3 50.6341 255.765 50.4509 255.342 50.0845C254.924 49.7137 254.714 49.1903 254.714 48.5142C254.714 47.6374 255.052 47.0027 255.728 46.6102C256.099 46.3964 256.644 46.2437 257.364 46.1521L257.999 46.0736ZM266.531 43.1097C266.566 43.1097 266.594 43.1118 266.616 43.1162C266.642 43.1162 266.697 43.1184 266.779 43.1228V45.0333C266.662 45.0202 266.557 45.0115 266.465 45.0071C266.374 45.0028 266.3 45.0006 266.243 45.0006C265.493 45.0006 264.989 45.2449 264.731 45.7334C264.588 46.0082 264.516 46.4313 264.516 47.0027V50.4116H262.638V43.2798H264.417V44.5229C264.705 44.0475 264.956 43.7225 265.17 43.548C265.519 43.2558 265.972 43.1097 266.531 43.1097ZM272.275 43.2798H274.278L271.706 50.4116H269.737L267.179 43.2798H269.272L270.758 48.5403L272.275 43.2798ZM279.27 46.9438C279.152 47.018 279.032 47.0791 278.91 47.1271C278.792 47.1707 278.629 47.2121 278.419 47.2514L278.001 47.3299C277.608 47.3997 277.327 47.4847 277.157 47.5851C276.869 47.7552 276.725 48.0191 276.725 48.3768C276.725 48.6952 276.812 48.9264 276.986 49.0703C277.165 49.2099 277.381 49.2797 277.634 49.2797C278.035 49.2797 278.404 49.1619 278.74 48.9264C279.08 48.6908 279.257 48.2612 279.27 47.6374V46.9438ZM278.138 46.0736C278.483 46.03 278.729 45.9755 278.877 45.9101C279.143 45.7966 279.276 45.62 279.276 45.3801C279.276 45.0878 279.174 44.8872 278.969 44.7781C278.768 44.6647 278.472 44.608 278.079 44.608C277.639 44.608 277.327 44.7171 277.143 44.9352C277.013 45.0965 276.925 45.3146 276.882 45.5895H275.082C275.122 44.9657 275.296 44.4532 275.606 44.0519C276.099 43.4237 276.945 43.1097 278.145 43.1097C278.925 43.1097 279.619 43.2645 280.225 43.5742C280.832 43.8839 281.135 44.4684 281.135 45.3277V48.5992C281.135 48.826 281.139 49.1008 281.148 49.4236C281.161 49.6679 281.198 49.8337 281.259 49.9209C281.32 50.0081 281.412 50.0801 281.534 50.1368V50.4116H279.505C279.449 50.2677 279.41 50.1325 279.388 50.006C279.366 49.8795 279.348 49.7355 279.335 49.5741C279.078 49.8533 278.781 50.091 278.446 50.2873C278.044 50.5185 277.591 50.6341 277.085 50.6341C276.439 50.6341 275.905 50.4509 275.482 50.0845C275.063 49.7137 274.853 49.1903 274.853 48.5142C274.853 47.6374 275.191 47.0027 275.868 46.6102C276.238 46.3964 276.784 46.2437 277.503 46.1521L278.138 46.0736ZM288.705 40.8H289.699L286.65 50.4116H285.656L288.705 40.8ZM299.566 43.8359C299.566 43.3343 299.433 42.9766 299.167 42.7629C298.905 42.5492 298.537 42.4423 298.061 42.4423H296.184V45.2819H298.061C298.537 45.2819 298.905 45.1663 299.167 44.9352C299.433 44.704 299.566 44.3376 299.566 43.8359ZM301.562 43.8229C301.562 44.9613 301.274 45.7661 300.698 46.2372C300.122 46.7083 299.3 46.9438 298.231 46.9438H296.184V50.4116H294.181V40.7673H298.382C299.35 40.7673 300.122 41.0159 300.698 41.5132C301.274 42.0104 301.562 42.7803 301.562 43.8229ZM305.736 44.6276C305.304 44.6276 304.969 44.7629 304.729 45.0333C304.493 45.3037 304.345 45.6701 304.284 46.1325H307.182C307.152 45.6396 307.001 45.2667 306.731 45.0137C306.465 44.7563 306.133 44.6276 305.736 44.6276ZM305.736 43.09C306.329 43.09 306.864 43.2013 307.339 43.4237C307.815 43.6462 308.207 43.9973 308.517 44.4771C308.796 44.9003 308.977 45.391 309.06 45.9493C309.108 46.2765 309.128 46.7476 309.119 47.3626H304.238C304.264 48.078 304.489 48.5796 304.912 48.8675C305.169 49.0463 305.479 49.1357 305.841 49.1357C306.225 49.1357 306.537 49.0267 306.777 48.8086C306.907 48.6908 307.023 48.5272 307.123 48.3179H309.027C308.979 48.741 308.759 49.1706 308.367 49.6068C307.756 50.3004 306.901 50.6472 305.802 50.6472C304.894 50.6472 304.094 50.3549 303.4 49.7704C302.707 49.1859 302.36 48.235 302.36 46.9177C302.36 45.6832 302.672 44.7367 303.296 44.078C303.924 43.4194 304.737 43.09 305.736 43.09ZM309.649 44.6734V43.3452H310.643V41.3562H312.489V43.3452H313.647V44.6734H312.489V48.4422C312.489 48.7344 312.526 48.9176 312.6 48.9918C312.674 49.0616 312.901 49.0965 313.28 49.0965C313.337 49.0965 313.396 49.0965 313.457 49.0965C313.522 49.0921 313.586 49.0878 313.647 49.0834V50.4771L312.763 50.5098C311.882 50.5403 311.28 50.3876 310.958 50.0518C310.748 49.838 310.643 49.5087 310.643 49.0638V44.6734H309.649ZM317.658 44.6276C317.226 44.6276 316.89 44.7629 316.65 45.0333C316.414 45.3037 316.266 45.6701 316.205 46.1325H319.104C319.073 45.6396 318.923 45.2667 318.652 45.0137C318.386 44.7563 318.054 44.6276 317.658 44.6276ZM317.658 43.09C318.251 43.09 318.785 43.2013 319.261 43.4237C319.736 43.6462 320.129 43.9973 320.438 44.4771C320.717 44.9003 320.898 45.391 320.981 45.9493C321.029 46.2765 321.049 46.7476 321.04 47.3626H316.159C316.185 48.078 316.41 48.5796 316.833 48.8675C317.09 49.0463 317.4 49.1357 317.762 49.1357C318.146 49.1357 318.458 49.0267 318.698 48.8086C318.829 48.6908 318.944 48.5272 319.045 48.3179H320.949C320.901 48.741 320.68 49.1706 320.288 49.6068C319.677 50.3004 318.822 50.6472 317.723 50.6472C316.816 50.6472 316.015 50.3549 315.322 49.7704C314.628 49.1859 314.281 48.235 314.281 46.9177C314.281 45.6832 314.593 44.7367 315.217 44.078C315.845 43.4194 316.659 43.09 317.658 43.09ZM326.176 43.1097C326.211 43.1097 326.24 43.1118 326.262 43.1162C326.288 43.1162 326.342 43.1184 326.425 43.1228V45.0333C326.307 45.0202 326.203 45.0115 326.111 45.0071C326.019 45.0028 325.945 45.0006 325.889 45.0006C325.138 45.0006 324.635 45.2449 324.377 45.7334C324.233 46.0082 324.161 46.4313 324.161 47.0027V50.4116H322.283V43.2798H324.063V44.5229C324.351 44.0475 324.602 43.7225 324.816 43.548C325.165 43.2558 325.618 43.1097 326.176 43.1097ZM331.378 43.1228C332.316 43.1228 333.049 43.4608 333.577 44.1369C334.109 44.813 334.375 45.6854 334.375 46.7541C334.375 47.862 334.113 48.7802 333.59 49.5087C333.066 50.2371 332.336 50.6014 331.398 50.6014C330.809 50.6014 330.336 50.4836 329.978 50.248C329.764 50.1085 329.533 49.8642 329.284 49.5152V50.4116H327.459V40.7804H329.317V44.2089C329.553 43.8774 329.812 43.6244 330.096 43.4499C330.432 43.2318 330.859 43.1228 331.378 43.1228ZM330.901 49.0638C331.38 49.0638 331.753 48.8697 332.019 48.4814C332.285 48.0932 332.418 47.5829 332.418 46.9504C332.418 46.4444 332.353 46.0257 332.222 45.6941C331.974 45.066 331.516 44.752 330.848 44.752C330.172 44.752 329.708 45.0595 329.455 45.6745C329.324 46.0017 329.258 46.4248 329.258 46.9438C329.258 47.5545 329.393 48.0605 329.664 48.4618C329.934 48.8631 330.347 49.0638 330.901 49.0638ZM337.574 43.2798V47.5785C337.574 47.9842 337.622 48.2895 337.718 48.4945C337.888 48.8566 338.222 49.0376 338.719 49.0376C339.356 49.0376 339.792 48.7802 340.028 48.2655C340.15 47.9864 340.211 47.6178 340.211 47.1598V43.2798H342.102V50.4116H340.29V49.404C340.272 49.4258 340.229 49.4912 340.159 49.6003C340.089 49.7093 340.006 49.8053 339.91 49.8882C339.618 50.1499 339.334 50.3287 339.06 50.4247C338.789 50.5207 338.471 50.5687 338.104 50.5687C337.049 50.5687 336.338 50.1892 335.971 49.4302C335.766 49.0114 335.664 48.3942 335.664 47.5785V43.2798H337.574ZM347.781 43.1097C347.816 43.1097 347.845 43.1118 347.866 43.1162C347.893 43.1162 347.947 43.1184 348.03 43.1228V45.0333C347.912 45.0202 347.808 45.0115 347.716 45.0071C347.624 45.0028 347.55 45.0006 347.493 45.0006C346.743 45.0006 346.239 45.2449 345.982 45.7334C345.838 46.0082 345.766 46.4313 345.766 47.0027V50.4116H343.888V43.2798H345.668V44.5229C345.956 44.0475 346.207 43.7225 346.42 43.548C346.769 43.2558 347.223 43.1097 347.781 43.1097ZM351.046 42.4292H349.155V40.7084H351.046V42.4292ZM349.155 43.2798H351.046V50.4116H349.155V43.2798Z" fill="#0C0C0C"/>
<path d="M106.653 130.358L107.491 131.139L105.282 133.508L111.474 139.282L110.573 140.249L104.38 134.475L102.172 136.843L101.334 136.062L106.653 130.358ZM112.627 135.311C112.876 135.543 113.157 135.635 113.47 135.587C113.783 135.539 114.056 135.391 114.288 135.142C114.57 134.839 114.774 134.48 114.898 134.065C115.111 133.369 114.953 132.775 114.424 132.281L113.73 131.634C113.699 131.802 113.628 131.989 113.518 132.197C113.408 132.404 113.288 132.597 113.159 132.774L112.739 133.358C112.489 133.71 112.336 134.005 112.28 134.245C112.183 134.649 112.298 135.005 112.627 135.311ZM112.831 131.6C112.989 131.379 113.03 131.169 112.952 130.971C112.911 130.861 112.819 130.74 112.675 130.606C112.382 130.332 112.072 130.24 111.744 130.328C111.417 130.411 111.072 130.646 110.709 131.036C110.29 131.486 110.113 131.918 110.18 132.332C110.216 132.562 110.352 132.817 110.587 133.096L109.837 133.9C109.22 133.295 108.972 132.681 109.092 132.06C109.212 131.432 109.515 130.858 110 130.338C110.562 129.735 111.133 129.353 111.714 129.19C112.292 129.031 112.823 129.178 113.308 129.63L116.261 132.383C116.35 132.467 116.438 132.516 116.525 132.531C116.615 132.544 116.715 132.491 116.825 132.373C116.861 132.335 116.899 132.29 116.941 132.239C116.979 132.185 117.019 132.127 117.06 132.064L117.696 132.657C117.609 132.827 117.538 132.951 117.482 133.03C117.426 133.11 117.342 133.21 117.229 133.331C116.952 133.628 116.646 133.745 116.311 133.683C116.133 133.649 115.929 133.551 115.699 133.389C115.765 133.779 115.729 134.217 115.592 134.703C115.454 135.189 115.201 135.63 114.832 136.026C114.389 136.501 113.883 136.757 113.313 136.792C112.743 136.821 112.241 136.633 111.807 136.229C111.332 135.786 111.102 135.294 111.117 134.753C111.132 134.212 111.334 133.673 111.722 133.135L112.831 131.6ZM111.454 125.209L112.258 124.347L119.287 130.903L118.484 131.764L111.454 125.209ZM113.489 123.026L114.292 122.165L121.322 128.72L120.519 129.582L113.489 123.026ZM117.43 122.666L118.247 121.791L123.348 126.548L122.531 127.423L117.43 122.666ZM115.502 120.868L116.318 119.992L117.294 120.903L116.478 121.778L115.502 120.868ZM119.441 120.462L120.204 119.643L120.931 120.322C120.858 119.8 120.882 119.342 121.004 118.949C121.126 118.556 121.342 118.193 121.651 117.861C122.329 117.134 123.041 116.879 123.786 117.097C124.195 117.215 124.657 117.516 125.174 117.997L128.462 121.063L127.645 121.939L124.415 118.927C124.102 118.635 123.807 118.446 123.529 118.361C123.068 118.216 122.649 118.345 122.274 118.747C122.084 118.951 121.949 119.138 121.868 119.307C121.718 119.609 121.665 119.947 121.709 120.322C121.744 120.624 121.832 120.881 121.972 121.096C122.112 121.304 122.35 121.564 122.685 121.876L125.369 124.38L124.566 125.241L119.441 120.462ZM124.528 115.006L125.291 114.188L126.018 114.866C125.944 114.344 125.969 113.886 126.091 113.493C126.213 113.1 126.428 112.737 126.738 112.406C127.416 111.678 128.128 111.423 128.873 111.641C129.281 111.76 129.744 112.06 130.261 112.542L133.548 115.608L132.732 116.483L129.502 113.471C129.189 113.18 128.894 112.991 128.616 112.905C128.154 112.76 127.736 112.889 127.361 113.291C127.171 113.495 127.035 113.682 126.955 113.852C126.805 114.153 126.752 114.492 126.796 114.867C126.831 115.168 126.919 115.426 127.059 115.64C127.199 115.848 127.437 116.108 127.772 116.421L130.456 118.924L129.653 119.785L124.528 115.006ZM133.992 112.398C134.241 112.63 134.522 112.722 134.835 112.674C135.148 112.626 135.42 112.477 135.652 112.228C135.935 111.925 136.139 111.566 136.263 111.151C136.476 110.456 136.318 109.861 135.789 109.367L135.095 108.72C135.063 108.888 134.993 109.075 134.883 109.283C134.773 109.491 134.653 109.683 134.523 109.86L134.104 110.444C133.854 110.796 133.701 111.091 133.644 111.331C133.547 111.736 133.663 112.091 133.992 112.398ZM134.195 108.687C134.354 108.465 134.395 108.255 134.317 108.057C134.276 107.948 134.184 107.826 134.04 107.692C133.747 107.418 133.436 107.326 133.109 107.414C132.782 107.497 132.437 107.733 132.074 108.122C131.654 108.572 131.478 109.004 131.545 109.418C131.581 109.648 131.716 109.903 131.951 110.182L131.202 110.986C130.585 110.381 130.337 109.767 130.457 109.146C130.577 108.518 130.879 107.944 131.364 107.424C131.927 106.821 132.498 106.439 133.079 106.277C133.657 106.117 134.188 106.264 134.673 106.716L137.625 109.47C137.715 109.553 137.803 109.602 137.89 109.618C137.98 109.63 138.08 109.577 138.19 109.459C138.225 109.421 138.264 109.376 138.305 109.325C138.344 109.272 138.383 109.213 138.424 109.15L139.061 109.743C138.974 109.913 138.903 110.038 138.847 110.117C138.791 110.196 138.707 110.296 138.594 110.417C138.317 110.714 138.011 110.831 137.675 110.769C137.498 110.735 137.294 110.637 137.063 110.475C137.129 110.865 137.094 111.303 136.956 111.789C136.819 112.276 136.566 112.716 136.197 113.112C135.754 113.587 135.247 113.843 134.678 113.878C134.108 113.907 133.606 113.72 133.172 113.315C132.697 112.872 132.467 112.38 132.482 111.839C132.497 111.299 132.698 110.759 133.087 110.221L134.195 108.687ZM137.267 101.343L138.03 100.525L138.916 101.35C138.806 101.123 138.75 100.763 138.748 100.273C138.743 99.7791 138.9 99.3615 139.218 99.0202C139.233 99.0042 139.26 98.9786 139.299 98.9433C139.338 98.9079 139.405 98.8485 139.501 98.7649L140.41 99.6128C140.353 99.6549 140.302 99.6968 140.257 99.7385C140.215 99.777 140.171 99.8218 140.123 99.8728C139.719 100.307 139.548 100.771 139.612 101.266C139.672 101.757 139.884 102.173 140.248 102.512L143.196 105.261L142.392 106.122L137.267 101.343ZM140.312 98.1254L141.129 97.2497L146.23 102.007L145.413 102.882L140.312 98.1254ZM138.384 96.3271L139.2 95.4513L140.176 96.3616L139.36 97.2374L138.384 96.3271ZM142.323 95.9209L143.086 95.1025L143.813 95.7808C143.739 95.2587 143.764 94.801 143.886 94.4079C144.008 94.0147 144.223 93.6522 144.533 93.3204C145.211 92.593 145.923 92.3382 146.668 92.556C147.076 92.6744 147.539 92.9746 148.056 93.4565L151.343 96.5223L150.527 97.398L147.297 94.3859C146.984 94.0943 146.689 93.9056 146.411 93.8196C145.949 93.6752 145.531 93.8041 145.156 94.206C144.966 94.4102 144.83 94.5971 144.75 94.7666C144.6 95.0681 144.547 95.4064 144.591 95.7814C144.626 96.0826 144.714 96.3404 144.854 96.5546C144.994 96.7627 145.232 97.0229 145.567 97.3353L148.251 99.8387L147.448 100.7L142.323 95.9209ZM149.005 88.5714C149.38 88.1694 149.806 87.9107 150.284 87.7952C150.547 87.7367 150.865 87.7225 151.236 87.7527L150.59 87.1503L151.331 86.3558L155.992 90.7023C156.643 91.3092 157.067 91.8839 157.265 92.4263C157.627 93.4322 157.346 94.4313 156.421 95.4235C155.906 95.9754 155.349 96.3236 154.749 96.468C154.152 96.6154 153.57 96.466 153.002 96.0198L153.818 95.1441C154.087 95.3168 154.341 95.3989 154.582 95.3905C154.954 95.3744 155.336 95.1574 155.725 94.7394C156.341 94.079 156.511 93.4295 156.236 92.791C156.075 92.4139 155.637 91.9014 154.923 91.2535C155.024 91.6698 155.025 92.0586 154.927 92.4201C154.828 92.7816 154.593 93.1617 154.221 93.5605C153.704 94.1156 153.054 94.4192 152.272 94.4713C151.489 94.5171 150.644 94.1161 149.734 93.2682C148.876 92.468 148.401 91.6343 148.309 90.7671C148.22 89.8967 148.452 89.1648 149.005 88.5714ZM153.083 89.4752C152.448 88.8832 151.856 88.5752 151.306 88.5512C150.755 88.5272 150.291 88.7178 149.914 89.123C149.348 89.7292 149.246 90.4087 149.605 91.1616C149.798 91.5623 150.14 91.9917 150.632 92.4498C151.209 92.9883 151.758 93.2824 152.278 93.3321C152.798 93.3757 153.243 93.1996 153.612 92.804C154.189 92.1851 154.316 91.4893 153.992 90.7166C153.807 90.2817 153.504 89.8679 153.083 89.4752ZM151.226 83.503L152.038 82.632L153.469 83.9662L154.232 83.1479L154.936 83.8039L154.173 84.6222L157.518 87.7415C157.696 87.9081 157.873 87.959 158.046 87.8943C158.144 87.86 158.265 87.7647 158.411 87.6084C158.45 87.5669 158.492 87.5223 158.536 87.4744C158.578 87.4236 158.625 87.3633 158.678 87.2935L159.357 87.9272C159.294 88.0529 159.218 88.1759 159.13 88.2963C159.044 88.4135 158.944 88.5343 158.828 88.6587C158.453 89.0607 158.096 89.2383 157.758 89.1914C157.417 89.1416 157.082 88.9635 156.754 88.6571L153.361 85.4932L152.714 86.1871L152.01 85.5312L152.657 84.8372L151.226 83.503ZM156.915 80.0402C157.254 79.6765 157.669 79.4042 158.16 79.2235C158.647 79.0398 159.11 78.9851 159.548 79.0593C159.967 79.128 160.375 79.2942 160.773 79.5581C161.057 79.7272 161.457 80.0527 161.974 80.5347L158.471 84.2914C159.006 84.7604 159.539 85.0273 160.069 85.0921C160.595 85.1539 161.083 84.944 161.533 84.4622C161.952 84.0124 162.138 83.5151 162.092 82.9704C162.062 82.6566 161.964 82.3622 161.797 82.0872L162.587 81.2401C162.754 81.438 162.895 81.7093 163.009 82.0541C163.122 82.3927 163.18 82.7086 163.181 83.0018C163.192 83.5014 163.062 83.9859 162.792 84.4553C162.649 84.7102 162.456 84.9685 162.212 85.2301C161.617 85.8682 160.882 86.1933 160.006 86.2054C159.126 86.2146 158.269 85.8294 157.433 85.05C156.61 84.2824 156.15 83.4358 156.053 82.5102C155.955 81.5846 156.243 80.7612 156.915 80.0402ZM160.464 80.7819C160.058 80.4689 159.684 80.2721 159.342 80.1915C158.707 80.0408 158.132 80.2415 157.617 80.7934C157.249 81.189 157.083 81.6547 157.12 82.1905C157.154 82.7232 157.384 83.2029 157.809 83.6294L160.464 80.7819ZM162.002 74.5845C162.341 74.2208 162.756 73.9486 163.247 73.7679C163.734 73.5842 164.197 73.5294 164.634 73.6036C165.053 73.6723 165.462 73.8386 165.86 74.1024C166.144 74.2715 166.544 74.5971 167.061 75.079L163.558 78.8358C164.093 79.3047 164.625 79.5716 165.155 79.6364C165.682 79.6983 166.17 79.4883 166.619 79.0066C167.039 78.5567 167.225 78.0594 167.178 77.5148C167.149 77.201 167.051 76.9066 166.884 76.6315L167.673 75.7845C167.841 75.9823 167.981 76.2537 168.095 76.5984C168.209 76.9371 168.266 77.253 168.267 77.5462C168.279 78.0458 168.149 78.5302 167.878 78.9996C167.736 79.2546 167.543 79.5129 167.299 79.7745C166.704 80.4126 165.969 80.7377 165.092 80.7498C164.213 80.7589 163.356 80.3737 162.52 79.5943C161.697 78.8268 161.237 77.9802 161.139 77.0545C161.042 76.1289 161.33 75.3056 162.002 74.5845ZM165.551 75.3262C165.145 75.0133 164.771 74.8165 164.429 74.7358C163.794 74.5852 163.219 74.7858 162.704 75.3378C162.335 75.7334 162.17 76.1991 162.207 76.7348C162.241 77.2676 162.471 77.7472 162.896 78.1737L165.551 75.3262Z" fill="#0C0C0C"/>
<path d="M-13.4171 473.396V475.103H-16.3025V483.04H-18.3309V475.103H-21.2294V473.396H-13.4171ZM-9.44551 479.572C-9.56328 479.646 -9.68323 479.707 -9.80537 479.755C-9.92314 479.799 -10.0867 479.841 -10.2961 479.88L-10.7148 479.958C-11.1074 480.028 -11.3888 480.113 -11.5589 480.213C-11.8468 480.384 -11.9907 480.647 -11.9907 481.005C-11.9907 481.324 -11.9035 481.555 -11.729 481.699C-11.5502 481.838 -11.3342 481.908 -11.0812 481.908C-10.6799 481.908 -10.3114 481.79 -9.97549 481.555C-9.63525 481.319 -9.45859 480.89 -9.44551 480.266V479.572ZM-10.5774 478.702C-10.2328 478.658 -9.98639 478.604 -9.83808 478.538C-9.572 478.425 -9.43896 478.248 -9.43896 478.008C-9.43896 477.716 -9.54147 477.516 -9.74648 477.407C-9.94713 477.293 -10.2437 477.236 -10.6363 477.236C-11.0769 477.236 -11.3888 477.345 -11.572 477.564C-11.7028 477.725 -11.7901 477.943 -11.8337 478.218H-13.633C-13.5937 477.594 -13.4193 477.082 -13.1096 476.68C-12.6167 476.052 -11.7704 475.738 -10.5709 475.738C-9.7901 475.738 -9.09655 475.893 -8.49023 476.203C-7.88392 476.512 -7.58076 477.097 -7.58076 477.956V481.228C-7.58076 481.454 -7.5764 481.729 -7.56767 482.052C-7.55459 482.296 -7.51751 482.462 -7.45644 482.549C-7.39537 482.637 -7.30377 482.709 -7.18164 482.765V483.04H-9.20996C-9.26666 482.896 -9.30592 482.761 -9.32773 482.634C-9.34954 482.508 -9.36699 482.364 -9.38008 482.203C-9.63743 482.482 -9.93405 482.719 -10.2699 482.916C-10.6712 483.147 -11.1249 483.263 -11.6309 483.263C-12.2764 483.263 -12.8108 483.079 -13.2339 482.713C-13.6526 482.342 -13.862 481.819 -13.862 481.143C-13.862 480.266 -13.524 479.631 -12.8478 479.239C-12.4771 479.025 -11.9318 478.872 -11.2121 478.781L-10.5774 478.702ZM-2.04541 475.738C-2.01051 475.738 -1.98216 475.74 -1.96035 475.745C-1.93418 475.745 -1.87965 475.747 -1.79677 475.751V477.662C-1.91455 477.649 -2.01923 477.64 -2.11084 477.636C-2.20244 477.631 -2.27659 477.629 -2.3333 477.629C-3.08356 477.629 -3.58737 477.873 -3.84472 478.362C-3.98867 478.637 -4.06064 479.06 -4.06064 479.631V483.04H-5.93847V475.908H-4.15879V477.151C-3.8709 476.676 -3.62008 476.351 -3.40634 476.176C-3.05739 475.884 -2.60374 475.738 -2.04541 475.738ZM-1.43037 477.302V475.974H-0.435836V473.985H1.40928V475.974H2.56739V477.302H1.40928V481.071C1.40928 481.363 1.44636 481.546 1.52051 481.62C1.59467 481.69 1.82149 481.725 2.20098 481.725C2.25769 481.725 2.31657 481.725 2.37764 481.725C2.44307 481.721 2.50632 481.716 2.56739 481.712V483.105L1.68409 483.138C0.802966 483.169 0.201013 483.016 -0.121774 482.68C-0.331149 482.466 -0.435836 482.137 -0.435836 481.692V477.302H-1.43037ZM5.62295 475.908V480.207C5.62295 480.613 5.67094 480.918 5.7669 481.123C5.93702 481.485 6.27071 481.666 6.76797 481.666C7.40482 481.666 7.84102 481.409 8.07657 480.894C8.1987 480.615 8.25977 480.246 8.25977 479.788V475.908H10.1507V483.04H8.33829V482.032C8.32084 482.054 8.27722 482.12 8.20743 482.229C8.13763 482.338 8.05476 482.434 7.95879 482.517C7.66654 482.778 7.38301 482.957 7.10821 483.053C6.83776 483.149 6.51934 483.197 6.15293 483.197C5.09733 483.197 4.38633 482.818 4.01993 482.059C3.81491 481.64 3.71241 481.023 3.71241 480.207V475.908H5.62295Z" fill="#0C0C0C"/>
<path d="M209.063 226.117V229.078H211.673C212.191 229.078 212.58 229.018 212.839 228.898C213.298 228.689 213.527 228.275 213.527 227.657C213.527 226.989 213.306 226.541 212.862 226.311C212.613 226.182 212.239 226.117 211.74 226.117H209.063ZM212.219 224.203C212.991 224.217 213.585 224.312 213.998 224.487C214.417 224.661 214.771 224.918 215.06 225.257C215.3 225.536 215.489 225.845 215.629 226.184C215.768 226.523 215.838 226.909 215.838 227.343C215.838 227.867 215.706 228.383 215.442 228.891C215.177 229.395 214.741 229.751 214.133 229.96C214.642 230.165 215 230.456 215.21 230.835C215.424 231.209 215.531 231.782 215.531 232.555V233.295C215.531 233.799 215.551 234.14 215.591 234.32C215.651 234.604 215.791 234.813 216.01 234.948V235.225H213.475C213.405 234.98 213.355 234.783 213.325 234.634C213.266 234.325 213.233 234.008 213.228 233.684L213.213 232.66C213.203 231.957 213.074 231.488 212.824 231.254C212.58 231.02 212.119 230.903 211.441 230.903H209.063V235.225H206.812V224.203H212.219ZM219.846 226.102H217.685V224.135H219.846V226.102ZM217.685 227.074H219.846V235.225H217.685V227.074ZM226.434 226.88C227.276 226.88 227.964 227.101 228.498 227.545C229.036 227.984 229.305 228.714 229.305 229.736V235.225H227.122V230.267C227.122 229.838 227.064 229.509 226.95 229.28C226.74 228.861 226.342 228.652 225.753 228.652C225.031 228.652 224.534 228.958 224.265 229.571C224.126 229.896 224.056 230.309 224.056 230.813V235.225H221.932V227.089H223.989V228.278C224.263 227.859 224.522 227.557 224.766 227.373C225.205 227.044 225.761 226.88 226.434 226.88ZM234.779 233.475C235.277 233.475 235.699 233.288 236.043 232.914C236.387 232.535 236.559 231.934 236.559 231.112C236.559 230.339 236.394 229.751 236.065 229.347C235.741 228.943 235.305 228.741 234.756 228.741C234.009 228.741 233.493 229.093 233.209 229.796C233.059 230.17 232.984 230.631 232.984 231.179C232.984 231.653 233.064 232.074 233.224 232.443C233.513 233.131 234.031 233.475 234.779 233.475ZM234.248 226.88C234.657 226.88 235.013 226.942 235.317 227.066C235.836 227.281 236.255 227.675 236.574 228.248V227.074H238.645V234.806C238.645 235.858 238.468 236.65 238.114 237.184C237.506 238.101 236.339 238.56 234.614 238.56C233.573 238.56 232.723 238.355 232.065 237.946C231.406 237.538 231.043 236.927 230.973 236.114H233.291C233.351 236.364 233.448 236.543 233.582 236.653C233.812 236.847 234.198 236.944 234.742 236.944C235.509 236.944 236.023 236.688 236.282 236.174C236.451 235.845 236.536 235.292 236.536 234.514V233.991C236.332 234.34 236.112 234.601 235.878 234.776C235.454 235.1 234.904 235.262 234.226 235.262C233.179 235.262 232.341 234.896 231.713 234.163C231.09 233.425 230.778 232.428 230.778 231.172C230.778 229.96 231.08 228.943 231.683 228.121C232.286 227.293 233.141 226.88 234.248 226.88ZM242.832 226.102H240.671V224.135H242.832V226.102ZM240.671 227.074H242.832V235.225H240.671V227.074ZM248.328 228.667V227.149H249.465V224.876H251.574V227.149H252.897V228.667H251.574V232.974C251.574 233.308 251.616 233.517 251.701 233.602C251.786 233.682 252.045 233.722 252.479 233.722C252.543 233.722 252.611 233.722 252.68 233.722C252.755 233.717 252.828 233.712 252.897 233.707V235.299L251.888 235.337C250.881 235.372 250.193 235.197 249.824 234.813C249.585 234.569 249.465 234.193 249.465 233.684V228.667H248.328ZM257.481 228.614C256.988 228.614 256.604 228.769 256.33 229.078C256.06 229.387 255.891 229.806 255.821 230.334H259.134C259.099 229.771 258.927 229.345 258.618 229.056C258.314 228.761 257.935 228.614 257.481 228.614ZM257.481 226.857C258.159 226.857 258.77 226.984 259.313 227.238C259.857 227.493 260.305 227.894 260.659 228.442C260.978 228.926 261.185 229.487 261.28 230.125C261.335 230.499 261.357 231.037 261.347 231.74H255.769C255.799 232.558 256.055 233.131 256.539 233.46C256.833 233.664 257.187 233.766 257.601 233.766C258.039 233.766 258.396 233.642 258.67 233.393C258.82 233.258 258.952 233.071 259.066 232.832H261.242C261.188 233.315 260.936 233.806 260.487 234.305C259.789 235.097 258.812 235.494 257.556 235.494C256.519 235.494 255.604 235.16 254.812 234.492C254.019 233.824 253.623 232.737 253.623 231.232C253.623 229.821 253.979 228.739 254.692 227.986C255.41 227.233 256.34 226.857 257.481 226.857ZM266.006 228.614C265.512 228.614 265.128 228.769 264.854 229.078C264.585 229.387 264.415 229.806 264.346 230.334H267.658C267.623 229.771 267.451 229.345 267.142 229.056C266.838 228.761 266.459 228.614 266.006 228.614ZM266.006 226.857C266.684 226.857 267.294 226.984 267.838 227.238C268.381 227.493 268.83 227.894 269.184 228.442C269.503 228.926 269.71 229.487 269.804 230.125C269.859 230.499 269.882 231.037 269.872 231.74H264.293C264.323 232.558 264.58 233.131 265.064 233.46C265.358 233.664 265.712 233.766 266.125 233.766C266.564 233.766 266.92 233.642 267.195 233.393C267.344 233.258 267.476 233.071 267.591 232.832H269.767C269.712 233.315 269.46 233.806 269.012 234.305C268.314 235.097 267.337 235.494 266.08 235.494C265.044 235.494 264.129 235.16 263.336 234.492C262.544 233.824 262.147 232.737 262.147 231.232C262.147 229.821 262.504 228.739 263.217 227.986C263.934 227.233 264.864 226.857 266.006 226.857ZM215.562 260.922V256.207C217.749 256.11 219.28 255.964 220.155 255.77C221.548 255.462 222.682 254.847 223.557 253.923C224.157 253.291 224.61 252.449 224.918 251.396C225.096 250.764 225.185 250.294 225.185 249.986H230.945V285.225H223.849V260.922H215.562ZM239.549 260.922V256.207C241.736 256.11 243.267 255.964 244.142 255.77C245.536 255.462 246.67 254.847 247.545 253.923C248.144 253.291 248.598 252.449 248.906 251.396C249.084 250.764 249.173 250.294 249.173 249.986H254.933V285.225H247.836V260.922H239.549Z" fill="white"/>
<path d="M206.173 447.218V450.18H208.782C209.301 450.18 209.69 450.12 209.949 450C210.407 449.791 210.637 449.377 210.637 448.759C210.637 448.091 210.415 447.642 209.971 447.413C209.722 447.283 209.348 447.218 208.85 447.218H206.173ZM209.328 445.304C210.101 445.319 210.694 445.414 211.108 445.588C211.527 445.763 211.881 446.019 212.17 446.358C212.409 446.638 212.598 446.947 212.738 447.286C212.878 447.625 212.947 448.011 212.947 448.445C212.947 448.968 212.815 449.484 212.551 449.993C212.287 450.496 211.851 450.853 211.242 451.062C211.751 451.266 212.11 451.558 212.319 451.937C212.534 452.311 212.641 452.884 212.641 453.657V454.397C212.641 454.9 212.661 455.242 212.701 455.421C212.76 455.706 212.9 455.915 213.119 456.049V456.326H210.584C210.515 456.082 210.465 455.885 210.435 455.735C210.375 455.426 210.343 455.11 210.338 454.786L210.323 453.761C210.313 453.058 210.183 452.59 209.934 452.356C209.69 452.121 209.228 452.004 208.55 452.004H206.173V456.326H203.922V445.304H209.328ZM216.955 447.203H214.794V445.237H216.955V447.203ZM214.794 448.176H216.955V456.326H214.794V448.176ZM223.543 447.981C224.386 447.981 225.074 448.203 225.607 448.647C226.145 449.085 226.415 449.816 226.415 450.838V456.326H224.231V451.368C224.231 450.94 224.174 450.611 224.059 450.381C223.85 449.963 223.451 449.753 222.863 449.753C222.14 449.753 221.644 450.06 221.375 450.673C221.235 450.997 221.165 451.411 221.165 451.914V456.326H219.042V448.19H221.098V449.379C221.372 448.961 221.631 448.659 221.876 448.475C222.314 448.146 222.87 447.981 223.543 447.981ZM231.888 454.576C232.387 454.576 232.808 454.389 233.152 454.016C233.496 453.637 233.668 453.036 233.668 452.213C233.668 451.441 233.503 450.853 233.174 450.449C232.85 450.045 232.414 449.843 231.866 449.843C231.118 449.843 230.602 450.194 230.318 450.897C230.168 451.271 230.094 451.732 230.094 452.281C230.094 452.754 230.173 453.176 230.333 453.544C230.622 454.232 231.141 454.576 231.888 454.576ZM231.357 447.981C231.766 447.981 232.123 448.043 232.427 448.168C232.945 448.382 233.364 448.776 233.683 449.349V448.176H235.754V455.907C235.754 456.959 235.577 457.752 235.223 458.285C234.615 459.203 233.449 459.661 231.724 459.661C230.682 459.661 229.832 459.457 229.174 459.048C228.516 458.639 228.152 458.029 228.082 457.216H230.4C230.46 457.465 230.557 457.645 230.692 457.754C230.921 457.949 231.308 458.046 231.851 458.046C232.619 458.046 233.132 457.789 233.391 457.276C233.561 456.947 233.646 456.393 233.646 455.616V455.092C233.441 455.441 233.222 455.703 232.988 455.878C232.564 456.202 232.013 456.364 231.335 456.364C230.288 456.364 229.451 455.997 228.822 455.264C228.199 454.527 227.888 453.53 227.888 452.273C227.888 451.062 228.189 450.045 228.793 449.222C229.396 448.395 230.251 447.981 231.357 447.981ZM239.942 447.203H237.781V445.237H239.942V447.203ZM237.781 448.176H239.942V456.326H237.781V448.176ZM245.438 449.768V448.25H246.574V445.977H248.683V448.25H250.007V449.768H248.683V454.075C248.683 454.409 248.726 454.619 248.81 454.704C248.895 454.783 249.154 454.823 249.588 454.823C249.653 454.823 249.72 454.823 249.79 454.823C249.865 454.818 249.937 454.813 250.007 454.808V456.401L248.997 456.438C247.99 456.473 247.302 456.299 246.933 455.915C246.694 455.671 246.574 455.294 246.574 454.786V449.768H245.438ZM254.591 449.716C254.097 449.716 253.713 449.87 253.439 450.18C253.17 450.489 253 450.907 252.93 451.436H256.243C256.208 450.872 256.036 450.446 255.727 450.157C255.423 449.863 255.044 449.716 254.591 449.716ZM254.591 447.959C255.268 447.959 255.879 448.086 256.423 448.34C256.966 448.594 257.415 448.996 257.769 449.544C258.088 450.027 258.294 450.588 258.389 451.226C258.444 451.6 258.466 452.139 258.456 452.842H252.878C252.908 453.659 253.165 454.232 253.648 454.561C253.942 454.766 254.296 454.868 254.71 454.868C255.149 454.868 255.505 454.743 255.779 454.494C255.929 454.36 256.061 454.173 256.176 453.933H258.352C258.297 454.417 258.045 454.908 257.597 455.406C256.899 456.199 255.922 456.595 254.665 456.595C253.628 456.595 252.714 456.261 251.921 455.593C251.128 454.925 250.732 453.839 250.732 452.333C250.732 450.922 251.088 449.841 251.801 449.088C252.519 448.335 253.449 447.959 254.591 447.959ZM263.115 449.716C262.622 449.716 262.238 449.87 261.964 450.18C261.694 450.489 261.525 450.907 261.455 451.436H264.768C264.733 450.872 264.561 450.446 264.252 450.157C263.948 449.863 263.569 449.716 263.115 449.716ZM263.115 447.959C263.793 447.959 264.404 448.086 264.947 448.34C265.49 448.594 265.939 448.996 266.293 449.544C266.612 450.027 266.819 450.588 266.914 451.226C266.969 451.6 266.991 452.139 266.981 452.842H261.403C261.433 453.659 261.689 454.232 262.173 454.561C262.467 454.766 262.821 454.868 263.235 454.868C263.673 454.868 264.03 454.743 264.304 454.494C264.454 454.36 264.586 454.173 264.7 453.933H266.876C266.822 454.417 266.57 454.908 266.121 455.406C265.423 456.199 264.446 456.595 263.19 456.595C262.153 456.595 261.238 456.261 260.446 455.593C259.653 454.925 259.257 453.839 259.257 452.333C259.257 450.922 259.613 449.841 260.326 449.088C261.044 448.335 261.973 447.959 263.115 447.959ZM211.31 482.024V477.309C213.497 477.212 215.028 477.066 215.903 476.872C217.297 476.564 218.431 475.948 219.306 475.025C219.905 474.393 220.359 473.55 220.667 472.497C220.845 471.865 220.934 471.395 220.934 471.088H226.694V506.326H219.597V482.024H211.31ZM242.686 495.512C242.686 496.921 242.912 498.088 243.366 499.011C244.209 500.712 245.74 501.563 247.959 501.563C249.32 501.563 250.503 501.101 251.507 500.178C252.528 499.238 253.038 497.893 253.038 496.143C253.038 493.827 252.099 492.279 250.219 491.502C249.15 491.064 247.465 490.846 245.164 490.846V485.888C247.416 485.855 248.988 485.637 249.879 485.232C251.418 484.551 252.188 483.174 252.188 481.1C252.188 479.755 251.791 478.662 250.997 477.819C250.219 476.977 249.118 476.556 247.692 476.556C246.056 476.556 244.849 477.074 244.071 478.111C243.309 479.148 242.945 480.533 242.977 482.267H236.513C236.578 480.517 236.877 478.856 237.412 477.285C237.979 475.908 238.87 474.636 240.085 473.469C240.993 472.643 242.07 472.011 243.317 471.574C244.565 471.136 246.096 470.917 247.911 470.917C251.281 470.917 253.994 471.792 256.052 473.542C258.126 475.276 259.163 477.609 259.163 480.541C259.163 482.615 258.547 484.365 257.316 485.791C256.538 486.682 255.728 487.289 254.885 487.613C255.517 487.613 256.425 488.156 257.607 489.242C259.373 490.878 260.256 493.114 260.256 495.949C260.256 498.93 259.219 501.555 257.146 503.823C255.088 506.075 252.034 507.201 247.984 507.201C242.993 507.201 239.526 505.573 237.582 502.316C236.561 500.583 235.994 498.314 235.881 495.512H242.686Z" fill="white"/>
<path d="M235.963 67.2876L216.891 89.2511" stroke="#0C0C0C" stroke-width="2.87143"/>
<path d="M237.401 82.6032L236.679 66.9976L220.93 67.8645" stroke="#0C0C0C" stroke-width="2.87143"/>
</g>
<defs>
<clipPath id="clip0">
<rect width="320" height="670" fill="white"/>
</clipPath>
</defs>
</svg>
